<svg width="16" height="10" viewBox="0 0 16 10" fill="none" xmlns="http://www.w3.org/2000/svg">
<path d="M15.1599 9.04549C14.9489 9.2564 14.6628 9.37488 14.3645 9.37488C14.0662 9.37488 13.7801 9.2564 13.5691 9.04549L8.00037 3.47674L2.43162 9.04549C2.21945 9.25042 1.93527 9.36381 1.6403 9.36125C1.34532 9.35869 1.06316 9.24037 0.854576 9.03179C0.645992 8.8232 0.527678 8.54104 0.525115 8.24607C0.522552 7.9511 0.635946 7.66692 0.840875 7.45474L7.205 1.09062C7.41597 0.87971 7.70206 0.76123 8.00037 0.76123C8.29868 0.76123 8.58478 0.87971 8.79575 1.09062L15.1599 7.45474C15.3708 7.66571 15.4893 7.95181 15.4893 8.25012C15.4893 8.54843 15.3708 8.83452 15.1599 9.04549Z" fill="#A0A4B6"/>
</svg>
