<svg width="16" height="10" viewBox="0 0 16 10" fill="null" xmlns="http://www.w3.org/2000/svg">
<path d="M0.840127 0.95451C1.0511 0.743605 1.33719 0.625125 1.6355 0.625125C1.93381 0.625125 2.21991 0.743605 2.43088 0.95451L7.99963 6.52326L13.5684 0.95451C13.7806 0.749581 14.0647 0.636189 14.3597 0.638751C14.6547 0.641315 14.9368 0.759629 15.1454 0.968213C15.354 1.1768 15.4723 1.45896 15.4749 1.75393C15.4774 2.0489 15.3641 2.33308 15.1591 2.54526L8.795 8.90938C8.58403 9.12029 8.29794 9.23877 7.99963 9.23877C7.70132 9.23877 7.41522 9.12029 7.20425 8.90938L0.840127 2.54526C0.629222 2.33429 0.510742 2.04819 0.510742 1.74988C0.510742 1.45157 0.629222 1.16548 0.840127 0.95451Z"/>
</svg>
