<svg width="54" height="39" viewBox="0 0 76 59" fill="none" xmlns="http://www.w3.org/2000/svg">
<g filter="url(#filter0_d_1106_24019)">
<path d="M12.4121 10.5469L13.4411 27.2526L14.7382 27.0418L12.8097 10.5469H12.4121Z" fill="url(#paint0_linear_1106_24019)"/>
<path style="mix-blend-mode:color-burn" d="M14.6889 26.6167L12.8096 10.5469H12.7065L12.4258 10.7577L12.4315 10.8437C12.5472 10.8838 12.7489 10.8735 12.7627 10.8494C12.7718 11.1954 14.2489 26.6178 14.2489 26.6178H14.69L14.6889 26.6167Z" fill="url(#paint1_linear_1106_24019)"/>
<path d="M13.124 10.4331C13.1228 10.4251 13.1217 10.4182 13.1194 10.4102C13.1125 10.3816 13.1045 10.3541 13.093 10.3266C13.0907 10.3197 13.0862 10.314 13.0839 10.3071C13.0747 10.2876 13.0644 10.2693 13.0529 10.2509C13.0472 10.2406 13.0403 10.2315 13.0334 10.2212C13.0197 10.2017 13.0037 10.1822 12.9865 10.165C12.9762 10.1547 12.9658 10.1455 12.9544 10.1352C12.9452 10.1272 12.9349 10.118 12.9246 10.11C12.8364 10.0424 12.7264 10 12.606 10C12.315 10 12.0801 10.2361 12.0801 10.526C12.0801 10.6417 12.1179 10.7471 12.1809 10.8342C12.1935 10.8514 12.2073 10.8674 12.221 10.8835C12.2313 10.8949 12.2416 10.9041 12.2531 10.9144C12.2646 10.9247 12.2772 10.935 12.2909 10.9454C12.3035 10.9557 12.3173 10.9648 12.331 10.9729C12.3482 10.9843 12.3665 10.9935 12.386 11.0026C12.394 11.0061 12.4032 11.0107 12.4112 11.0141C12.4376 11.0244 12.4639 11.0324 12.4914 11.0393C12.4983 11.0405 12.5052 11.0416 12.5109 11.0427C12.5419 11.0485 12.5728 11.0519 12.6049 11.0519C12.8226 11.0519 13.0094 10.919 13.0896 10.7311C13.116 10.668 13.1308 10.5993 13.1308 10.526C13.1308 10.4939 13.1274 10.4629 13.1217 10.432L13.124 10.4331Z" fill="white"/>
<path d="M13.1261 10.5269C13.1261 10.8134 12.8934 11.046 12.607 11.046C12.3205 11.046 12.0879 10.8134 12.0879 10.5269C12.0879 10.2404 12.3205 10.0078 12.607 10.0078C12.8934 10.0078 13.1261 10.2404 13.1261 10.5269Z" fill="white"/>
<path d="M13.134 10.5279C13.134 10.819 12.8979 11.0539 12.608 11.0539C12.3181 11.0539 12.082 10.8178 12.082 10.5279C12.082 10.238 12.3181 10.002 12.608 10.002C12.8979 10.002 13.134 10.238 13.134 10.5279Z" fill="url(#paint2_radial_1106_24019)"/>
<path style="mix-blend-mode:color-burn" opacity="0.34" d="M12.8875 10.084C12.9505 10.1711 12.9883 10.2765 12.9883 10.3922C12.9883 10.6833 12.7523 10.9182 12.4624 10.9182C12.3593 10.9182 12.263 10.8872 12.1816 10.8357C12.2767 10.9675 12.4314 11.0534 12.6068 11.0534C12.8978 11.0534 13.1327 10.8173 13.1327 10.5274C13.1327 10.3407 13.0342 10.1768 12.8864 10.084H12.8875Z" fill="url(#paint3_linear_1106_24019)"/>
<path d="M61.0083 10.5586L59.1016 27.1864L60.4159 27.2059L61.399 10.6285L61.0083 10.5586Z" fill="url(#paint4_linear_1106_24019)"/>
<path style="mix-blend-mode:color-burn" d="M60.4413 26.7808L61.3993 10.6297L61.2973 10.6113L60.9833 10.7695L60.973 10.8543C61.0807 10.9138 61.2801 10.939 61.2984 10.9173C61.2468 11.2599 60.0059 26.7029 60.0059 26.7029L60.4402 26.7797L60.4413 26.7808Z" fill="url(#paint5_linear_1106_24019)"/>
<path d="M61.7285 10.5706C61.7285 10.5626 61.7285 10.5546 61.7285 10.5477C61.7273 10.5179 61.7239 10.4893 61.717 10.4618C61.7159 10.4549 61.7124 10.448 61.7113 10.44C61.7056 10.4194 61.6987 10.3987 61.6907 10.3793C61.6861 10.3678 61.6815 10.3575 61.6769 10.3472C61.6666 10.3254 61.654 10.3036 61.6414 10.2841C61.6334 10.2715 61.6242 10.2612 61.615 10.2486C61.607 10.2383 61.599 10.2291 61.5898 10.2188C61.5142 10.1363 61.4145 10.0756 61.2953 10.055C61.0089 10.0046 60.7362 10.1948 60.6857 10.4812C60.6651 10.5947 60.6857 10.7058 60.7316 10.8021C60.7407 10.8216 60.7511 10.8399 60.7625 10.8571C60.7705 10.8697 60.7797 10.8812 60.7889 10.8938C60.7992 10.9064 60.8095 10.919 60.8198 10.9304C60.8313 10.9419 60.8427 10.9533 60.8542 10.9648C60.8691 10.9786 60.8851 10.9912 60.9023 11.0038C60.9103 11.0095 60.9172 11.0141 60.9252 11.0198C60.9493 11.0347 60.9745 11.0473 61.0009 11.0588C61.0066 11.0611 61.0135 11.0633 61.0203 11.0656C61.049 11.076 61.0799 11.0863 61.1109 11.0908C61.3251 11.1287 61.5325 11.0313 61.6437 10.8594C61.6804 10.8021 61.7079 10.7368 61.7205 10.6646C61.7262 10.6325 61.7273 10.6016 61.7273 10.5706H61.7285Z" fill="white"/>
<path d="M61.7136 10.6641C61.6631 10.946 61.3939 11.1339 61.112 11.0847C60.8301 11.0342 60.6422 10.765 60.6914 10.4831C60.7419 10.2012 61.0111 10.0133 61.293 10.0625C61.5749 10.113 61.7628 10.3822 61.7136 10.6641Z" fill="white"/>
<path d="M61.7217 10.6665C61.6712 10.953 61.3974 11.1432 61.1121 11.0928C60.8267 11.0423 60.6354 10.7685 60.6858 10.4832C60.7362 10.1978 61.0101 10.0065 61.2954 10.0569C61.5819 10.1073 61.7721 10.3812 61.7217 10.6665Z" fill="url(#paint6_radial_1106_24019)"/>
<path style="mix-blend-mode:color-burn" opacity="0.34" d="M61.5555 10.1855C61.6025 10.2818 61.622 10.393 61.6013 10.5064C61.5509 10.7929 61.2771 10.9831 60.9917 10.9327C60.8897 10.9143 60.8015 10.8673 60.7305 10.8032C60.8015 10.9498 60.9379 11.0621 61.1109 11.0919C61.3974 11.1424 61.6701 10.9521 61.7205 10.6657C61.7537 10.4812 61.685 10.3036 61.5555 10.1855Z" fill="url(#paint7_linear_1106_24019)"/>
<path d="M17.9382 19.3458C12.6981 23.691 13.2412 40.9846 17.9382 44.6148C23.6114 49 29.5287 49 36.6286 49C43.7285 49 54.3095 48.4088 57.094 43.988C60.5396 38.5187 60.0492 24.6513 56.7456 20.0769C52.2206 13.8124 30.7812 8.69604 17.937 19.3458H17.9382Z" fill="url(#paint8_linear_1106_24019)"/>
<path d="M14.823 26.0625C13.3093 26.1324 9.35827 26.7409 10.0893 33.7892C10.8204 40.8375 13.1133 40.8925 15.5609 40.8123C16.6335 37.2348 14.823 26.0625 14.823 26.0625Z" fill="url(#paint9_linear_1106_24019)"/>
<path style="mix-blend-mode:color-burn" d="M46.2594 16.1314C46.7006 15.6467 45.1433 14.5237 43.8084 13.8408C41.2026 13.3549 38.3941 13.1143 35.5363 13.2071L33.6112 13.7766C32.934 13.8408 32.2556 13.9256 31.5795 14.0276C29.5662 14.9099 28.4845 15.8083 29.2351 16.2701C30.028 16.7571 45.3713 17.1054 46.2594 16.1303V16.1314Z" fill="url(#paint10_linear_1106_24019)"/>
<path style="mix-blend-mode:color-burn" d="M21.2447 21.2776C17.6089 23.7768 17.3465 39.7229 20.9663 42.4993C22.731 43.8526 29.9397 43.2923 37.2068 43.2522C44.8441 43.2109 52.5444 43.6269 54.0547 42.4993C56.8736 40.3932 57.945 23.9842 53.6376 21.2776C50.3432 19.207 23.1778 19.9496 21.2447 21.2776Z" fill="url(#paint11_linear_1106_24019)"/>
<path d="M20.8737 20.959C17.2378 23.4238 16.9754 39.151 20.5952 41.8885C22.3599 43.2235 29.5686 42.67 36.8358 42.6311C44.473 42.5898 52.1733 43.0012 53.6836 41.8885C56.5025 39.8122 57.5739 23.6289 53.2665 20.959C49.9721 18.9171 22.8068 19.6493 20.8737 20.959Z" fill="url(#paint12_linear_1106_24019)"/>
<path style="mix-blend-mode:color-burn" d="M54.6421 42.7776C45.5232 48.6273 18.3052 45.9769 15.916 41.7188C16.466 42.9907 17.1421 44.0002 17.9385 44.6156C23.6117 49.0008 29.5291 49.0008 36.6289 49.0008C43.7288 49.0008 54.3098 48.4096 57.0943 43.9888C60.54 38.5195 60.0495 24.6521 56.746 20.0777C56.0688 19.1404 55.01 18.2283 53.6601 17.3906C60.6729 24.3037 56.3117 41.4529 54.641 42.7776H54.6421Z" fill="url(#paint13_linear_1106_24019)"/>
<path d="M58.8828 26.0625C60.3965 26.1324 64.3475 26.7409 63.6164 33.7892C62.8854 40.8375 60.887 40.9051 58.4405 40.826C57.0781 33.1681 58.8828 26.0625 58.8828 26.0625Z" fill="url(#paint14_linear_1106_24019)"/>
<path style="mix-blend-mode:color-burn" d="M12.4679 26.6797C11.0046 27.4944 9.633 29.384 10.0891 33.7899C10.607 38.7825 11.9087 40.2664 13.4935 40.6777C13.5015 40.6743 13.5095 40.672 13.5175 40.6686C14.2085 39.3634 13.3376 27.5059 12.4668 26.6797H12.4679Z" fill="url(#paint15_linear_1106_24019)"/>
<path style="mix-blend-mode:color-burn" d="M61.2186 26.668C60.1002 30.7187 60.2973 39.7654 60.8931 40.5239C62.1731 39.9315 63.1517 38.2723 63.6169 33.7885C64.0764 29.3631 62.6887 27.477 61.2186 26.668Z" fill="url(#paint16_linear_1106_24019)"/>
<path d="M45.4 15.7134C45.8801 15.1679 44.4489 14.3395 43.0956 13.715C40.7088 13.3173 38.1695 13.126 35.589 13.205L33.178 13.3586C32.5237 13.4228 31.8683 13.5076 31.2151 13.6095C29.2694 14.4919 28.2244 15.3902 28.9497 15.852C29.7152 16.339 44.5429 16.6874 45.4011 15.7122L45.4 15.7134Z" fill="url(#paint17_linear_1106_24019)"/>
<path style="mix-blend-mode:screen" opacity="0.8" d="M38.5634 13.2315C37.5814 13.1845 36.5879 13.1742 35.5876 13.2052L33.1767 13.3587C32.5224 13.4229 31.8669 13.5077 31.2138 13.6096C29.6703 14.3098 28.6951 15.0191 28.7192 15.513C34.0693 16.236 38.0696 14.7853 38.5646 13.2315H38.5634Z" fill="url(#paint18_linear_1106_24019)"/>
<path style="mix-blend-mode:screen" opacity="0.8" d="M56.098 29.0787C55.8826 25.3753 55.0209 22.0465 53.2665 20.959C49.9721 18.9171 22.8068 19.6493 20.8737 20.959C18.6759 22.4487 17.7111 28.782 18.0904 34.1653C19.3142 30.5936 48.5066 26.6472 56.098 29.0787Z" fill="url(#paint19_linear_1106_24019)"/>
<g style="mix-blend-mode:screen" opacity="0.3">
<path d="M53.2663 20.959C49.9719 18.9171 22.8065 19.6493 20.8734 20.959C20.0174 21.5389 19.3494 22.8555 18.875 24.5617C19.943 22.0041 30.3739 18.657 54.1681 21.8047C53.8988 21.4518 53.5986 21.1653 53.2663 20.959Z" fill="white"/>
</g>
<g style="mix-blend-mode:screen" opacity="0.3">
<path d="M26.1709 20.127C23.3623 20.347 21.3502 20.6346 20.8735 20.9577C20.2008 21.4138 19.6439 22.3247 19.2051 23.5222C20.0817 24.9374 27.2755 22.3614 26.1697 20.127H26.1709Z" fill="white"/>
</g>
<path style="mix-blend-mode:screen" opacity="0.4" d="M22.0176 41.8932C24.6886 42.2839 30.9657 42.0639 37.0194 42.0777C44.6384 42.096 52.0121 42.2553 52.6045 41.8932C50.7081 41.6949 43.9073 41.2927 37.0893 41.3374C29.5426 41.3867 22.0176 41.8932 22.0176 41.8932Z" fill="url(#paint20_linear_1106_24019)"/>
<g style="mix-blend-mode:screen">
<path d="M26.8171 16.0575C27.0211 16.5536 26.125 17.3924 24.8164 17.9298C23.5078 18.4672 22.2817 18.5005 22.0778 18.0032C21.8738 17.5059 22.7699 16.6682 24.0785 16.1308C25.3871 15.5934 26.6132 15.5602 26.8171 16.0575Z" fill="white"/>
</g>
<g style="mix-blend-mode:screen">
<path d="M21.0813 18.8359C21.2601 19.0937 20.8544 19.6838 20.1749 20.1536C19.4966 20.6234 18.801 20.7953 18.6223 20.5386C18.4435 20.2808 18.8492 19.6907 19.5287 19.2209C20.207 18.7511 20.9026 18.5792 21.0813 18.8359Z" fill="white"/>
</g>
<g style="mix-blend-mode:screen" opacity="0.3">
<path d="M32.8661 13.3965C32.3149 13.4561 31.7638 13.526 31.2138 13.6131C30.7359 13.8296 29.6691 14.3292 29.0996 14.8735C30.7531 14.9297 32.3023 14.0496 32.8661 13.3965Z" fill="white"/>
</g>
<path style="mix-blend-mode:screen" opacity="0.4" d="M10.0556 33.4324C11.9245 33.0554 13.1667 29.2843 12.4677 26.6797C11.0445 27.4715 9.7084 29.282 10.0556 33.4324Z" fill="url(#paint21_linear_1106_24019)"/>
<path d="M51.8093 33.1794C52.4926 29.76 50.3248 26.4442 46.9674 25.7733C43.6101 25.1025 40.3345 27.3306 39.6512 30.75C38.968 34.1694 41.1357 37.4853 44.4931 38.1561C47.8504 38.827 51.126 36.5988 51.8093 33.1794Z" fill="url(#paint22_radial_1106_24019)"/>
<path d="M33.1062 33.4138C33.7894 29.9944 31.6217 26.6786 28.2643 26.0077C24.9069 25.3368 21.6314 27.565 20.9481 30.9844C20.2648 34.4038 22.4326 37.7196 25.79 38.3905C29.1473 39.0614 32.4229 36.8332 33.1062 33.4138Z" fill="url(#paint23_radial_1106_24019)"/>
<path d="M48.8308 32.2765C49.0352 30.2853 47.8097 28.5282 46.0935 28.3521C44.3774 28.176 42.8205 29.6474 42.6161 31.6387C42.4118 33.6299 43.6373 35.3869 45.3534 35.5631C47.0696 35.7392 48.6265 34.2678 48.8308 32.2765Z" fill="white"/>
<path d="M23.9133 32.5128C23.7089 30.5216 24.9345 28.7646 26.6506 28.5884C28.3668 28.4123 29.9236 29.8837 30.128 31.875C30.3324 33.8662 29.1068 35.6233 27.3907 35.7994C25.6746 35.9755 24.1177 34.5041 23.9133 32.5128Z" fill="white"/>
<g filter="url(#filter1_f_1106_24019)">
<path d="M32.1348 37.4181C33.3528 43.0891 40.2969 42.9837 41.2732 37.4536C41.3763 36.8681 41.0451 36.4304 40.5169 36.3032C36.9543 35.4438 34.3005 35.7944 32.9082 36.3181C32.4167 36.5026 32.0145 36.8555 32.1348 37.4181Z" fill="url(#paint24_radial_1106_24019)"/>
</g>
<path d="M33.6207 37.9142C34.4732 40.9038 38.8173 40.9015 39.7913 37.936C39.9059 37.5877 39.6469 37.229 39.2802 37.2324C36.3387 37.2577 34.8628 37.2508 34.1421 37.2416C33.788 37.237 33.5233 37.5739 33.6196 37.9142H33.6207Z" fill="white"/>
</g>
<defs>
<filter id="filter0_d_1106_24019" x="-2" y="-4" width="77.707" height="63" filterUnits="userSpaceOnUse" color-interpolation-filters="sRGB">
<feFlood flood-opacity="0" result="BackgroundImageFix"/>
<feColorMatrix in="SourceAlpha" type="matrix" values="0 0 0 0 0 0 0 0 0 0 0 0 0 0 0 0 0 0 127 0" result="hardAlpha"/>
<feOffset dy="-2"/>
<feGaussianBlur stdDeviation="6"/>
<feComposite in2="hardAlpha" operator="out"/>
<feColorMatrix type="matrix" values="0 0 0 0 0.115818 0 0 0 0 0.125 0 0 0 0 0.0895833 0 0 0 0.08 0"/>
<feBlend mode="normal" in2="BackgroundImageFix" result="effect1_dropShadow_1106_24019"/>
<feBlend mode="normal" in="SourceGraphic" in2="effect1_dropShadow_1106_24019" result="shape"/>
</filter>
<filter id="filter1_f_1106_24019" x="31.1133" y="34.7832" width="11.1777" height="7.85352" filterUnits="userSpaceOnUse" color-interpolation-filters="sRGB">
<feFlood flood-opacity="0" result="BackgroundImageFix"/>
<feBlend mode="normal" in="SourceGraphic" in2="BackgroundImageFix" result="shape"/>
<feGaussianBlur stdDeviation="0.5" result="effect1_foregroundBlur_1106_24019"/>
</filter>
<linearGradient id="paint0_linear_1106_24019" x1="12.4121" y1="18.8992" x2="14.7382" y2="18.8992" gradientUnits="userSpaceOnUse">
<stop offset="0.27" stop-color="#DCFDFF"/>
<stop offset="1" stop-color="#B5FFE3"/>
</linearGradient>
<linearGradient id="paint1_linear_1106_24019" x1="14.1079" y1="25.4742" x2="12.7443" y2="8.71461" gradientUnits="userSpaceOnUse">
<stop stop-color="#96D3BC"/>
<stop offset="0.43" stop-color="#95D2BB"/>
<stop offset="0.58" stop-color="#9CD5BF"/>
<stop offset="0.69" stop-color="#AADCC9"/>
<stop offset="0.78" stop-color="#BAE0D2"/>
<stop offset="0.86" stop-color="#CAE8DC"/>
<stop offset="0.92" stop-color="#E3F0EB"/>
<stop offset="0.97" stop-color="white"/>
</linearGradient>
<radialGradient id="paint2_radial_1106_24019" cx="0" cy="0" r="1" gradientUnits="userSpaceOnUse" gradientTransform="translate(12.5335 10.4271) scale(0.660028 0.660027)">
<stop stop-color="#DCFDFF"/>
<stop offset="0.39" stop-color="#DAFAFF"/>
<stop offset="0.58" stop-color="#D6FFEF"/>
<stop offset="0.74" stop-color="#D7FFF0"/>
<stop offset="0.87" stop-color="#C9FFEA"/>
<stop offset="1" stop-color="#B9FFE4"/>
</radialGradient>
<linearGradient id="paint3_linear_1106_24019" x1="12.1816" y1="10.5687" x2="13.1327" y2="10.5687" gradientUnits="userSpaceOnUse">
<stop stop-color="#95D0BA"/>
<stop offset="0.43" stop-color="#94CEB8"/>
<stop offset="0.58" stop-color="#9AD3BE"/>
<stop offset="0.69" stop-color="#AADCC9"/>
<stop offset="0.78" stop-color="#B3DECE"/>
<stop offset="0.86" stop-color="#C9E7DB"/>
<stop offset="0.92" stop-color="#E4F3EE"/>
<stop offset="0.97" stop-color="white"/>
</linearGradient>
<linearGradient id="paint4_linear_1106_24019" x1="59.547" y1="18.7917" x2="61.8385" y2="19.1986" gradientUnits="userSpaceOnUse">
<stop offset="0.27" stop-color="#DCFDFF"/>
<stop offset="1" stop-color="#B5FFE3"/>
</linearGradient>
<linearGradient id="paint5_linear_1106_24019" x1="60.0674" y1="25.5631" x2="61.6552" y2="8.82328" gradientUnits="userSpaceOnUse">
<stop stop-color="#93D1BA"/>
<stop offset="0.43" stop-color="#95D2BB"/>
<stop offset="0.58" stop-color="#9BD6BF"/>
<stop offset="0.69" stop-color="#A8DCC8"/>
<stop offset="0.78" stop-color="#B6DECF"/>
<stop offset="0.86" stop-color="#C9E6DB"/>
<stop offset="0.92" stop-color="#E5F1ED"/>
<stop offset="0.97" stop-color="white"/>
</linearGradient>
<radialGradient id="paint6_radial_1106_24019" cx="0" cy="0" r="1" gradientUnits="userSpaceOnUse" gradientTransform="translate(61.1467 10.4706) rotate(10.07) scale(0.660025 0.660027)">
<stop stop-color="#DCFDFF"/>
<stop offset="0.39" stop-color="#DAFAFF"/>
<stop offset="0.58" stop-color="#D5FFEF"/>
<stop offset="0.74" stop-color="#CEFFED"/>
<stop offset="0.87" stop-color="#BFFFE7"/>
<stop offset="1" stop-color="#B1FFE2"/>
</radialGradient>
<linearGradient id="paint7_linear_1106_24019" x1="60.7754" y1="10.5484" x2="61.7118" y2="10.7147" gradientUnits="userSpaceOnUse">
<stop stop-color="#94D1BA"/>
<stop offset="0.43" stop-color="#94D0BA"/>
<stop offset="0.58" stop-color="#9DD3BF"/>
<stop offset="0.69" stop-color="#A4D8C4"/>
<stop offset="0.78" stop-color="#BAE1D2"/>
<stop offset="0.86" stop-color="#D0ECE1"/>
<stop offset="0.92" stop-color="#E6F3EE"/>
<stop offset="0.97" stop-color="white"/>
</linearGradient>
<linearGradient id="paint8_linear_1106_24019" x1="25.8539" y1="15.6275" x2="51.2661" y2="53.0702" gradientUnits="userSpaceOnUse">
<stop stop-color="#E6FEFF"/>
<stop offset="1" stop-color="#C5FFE9"/>
</linearGradient>
<linearGradient id="paint9_linear_1106_24019" x1="12.2505" y1="30.5818" x2="14.611" y2="35.9892" gradientUnits="userSpaceOnUse">
<stop stop-color="#0097B6"/>
<stop offset="1" stop-color="#005F73"/>
</linearGradient>
<linearGradient id="paint10_linear_1106_24019" x1="31.0524" y1="4.39416" x2="40.2527" y2="20.4147" gradientUnits="userSpaceOnUse">
<stop stop-color="white"/>
<stop offset="0.12" stop-color="#EDF8F4"/>
<stop offset="0.36" stop-color="#CBE6DB"/>
<stop offset="0.69" stop-color="#8BC6B0"/>
<stop offset="0.82" stop-color="#74BEA2"/>
</linearGradient>
<linearGradient id="paint11_linear_1106_24019" x1="34.467" y1="26.7057" x2="53.3087" y2="60.1081" gradientUnits="userSpaceOnUse">
<stop offset="0.39" stop-color="#6FB69B"/>
<stop offset="1" stop-color="white"/>
</linearGradient>
<linearGradient id="paint12_linear_1106_24019" x1="28.3631" y1="16.0765" x2="47.065" y2="49.2325" gradientUnits="userSpaceOnUse">
<stop stop-color="#009ABA"/>
<stop offset="0.83" stop-color="#002F39"/>
</linearGradient>
<linearGradient id="paint13_linear_1106_24019" x1="43.6509" y1="37.3931" x2="64.2561" y2="54.3991" gradientUnits="userSpaceOnUse">
<stop stop-color="white"/>
<stop offset="0.11" stop-color="#E8F4F0"/>
<stop offset="0.32" stop-color="#C9E6DB"/>
<stop offset="0.61" stop-color="#8BC5AF"/>
<stop offset="0.73" stop-color="#6DB398"/>
</linearGradient>
<linearGradient id="paint14_linear_1106_24019" x1="57.8618" y1="30.7789" x2="61.0462" y2="35.068" gradientUnits="userSpaceOnUse">
<stop stop-color="#27B2CF"/>
<stop offset="1" stop-color="#005F73"/>
</linearGradient>
<linearGradient id="paint15_linear_1106_24019" x1="11.2533" y1="30.7796" x2="15.1928" y2="43.2342" gradientUnits="userSpaceOnUse">
<stop stop-color="white"/>
<stop offset="0.11" stop-color="#EBF5F2"/>
<stop offset="0.32" stop-color="#CEEADF"/>
<stop offset="0.61" stop-color="#8BC6B0"/>
<stop offset="0.73" stop-color="#73BBA0"/>
</linearGradient>
<linearGradient id="paint16_linear_1106_24019" x1="60.1185" y1="28.7065" x2="63.9011" y2="40.6649" gradientUnits="userSpaceOnUse">
<stop stop-color="white"/>
<stop offset="0.15" stop-color="#E8F5F0"/>
<stop offset="0.43" stop-color="#C7E4D9"/>
<stop offset="0.82" stop-color="#88C1AC"/>
<stop offset="0.98" stop-color="#6EB69A"/>
</linearGradient>
<linearGradient id="paint17_linear_1106_24019" x1="34.7158" y1="11.3155" x2="43.0716" y2="25.8647" gradientUnits="userSpaceOnUse">
<stop stop-color="#25B5D3"/>
<stop offset="0.5" stop-color="#005F73"/>
</linearGradient>
<linearGradient id="paint18_linear_1106_24019" x1="30.8929" y1="9.58761" x2="34.7545" y2="16.3128" gradientUnits="userSpaceOnUse">
<stop offset="0.04" stop-color="#197CE6"/>
<stop offset="0.09" stop-color="#1670D1"/>
<stop offset="0.21" stop-color="#10559F"/>
<stop offset="0.34" stop-color="#0B3E73"/>
<stop offset="0.47" stop-color="#072A50"/>
<stop offset="0.6" stop-color="#041C35"/>
<stop offset="0.73" stop-color="#011121"/>
<stop offset="0.86" stop-color="#000B15"/>
<stop offset="1" stop-color="#000912"/>
</linearGradient>
<linearGradient id="paint19_linear_1106_24019" x1="18.0227" y1="-3.58454" x2="42.5113" y2="39.0548" gradientUnits="userSpaceOnUse">
<stop offset="0.04" stop-color="#197CE6"/>
<stop offset="0.09" stop-color="#1670D1"/>
<stop offset="0.21" stop-color="#10559F"/>
<stop offset="0.34" stop-color="#0B3E73"/>
<stop offset="0.47" stop-color="#072A50"/>
<stop offset="0.6" stop-color="#041C35"/>
<stop offset="0.73" stop-color="#011121"/>
<stop offset="0.86" stop-color="#000B15"/>
<stop offset="1" stop-color="#000912"/>
</linearGradient>
<linearGradient id="paint20_linear_1106_24019" x1="22.0176" y1="41.7305" x2="52.6045" y2="41.7305" gradientUnits="userSpaceOnUse">
<stop offset="0.04" stop-color="#197CE6"/>
<stop offset="0.09" stop-color="#1670D1"/>
<stop offset="0.21" stop-color="#10559F"/>
<stop offset="0.34" stop-color="#0B3E73"/>
<stop offset="0.47" stop-color="#072A50"/>
<stop offset="0.6" stop-color="#041C35"/>
<stop offset="0.73" stop-color="#011121"/>
<stop offset="0.86" stop-color="#000B15"/>
<stop offset="1" stop-color="#000912"/>
</linearGradient>
<linearGradient id="paint21_linear_1106_24019" x1="9.18932" y1="27.6686" x2="11.7939" y2="30.6708" gradientUnits="userSpaceOnUse">
<stop stop-color="#197CE6"/>
<stop offset="0.21" stop-color="#125DAE"/>
<stop offset="0.48" stop-color="#0A396B"/>
<stop offset="0.71" stop-color="#041F3B"/>
<stop offset="0.89" stop-color="#010F1D"/>
<stop offset="0.99" stop-color="#000912"/>
</linearGradient>
<radialGradient id="paint22_radial_1106_24019" cx="0" cy="0" r="1" gradientUnits="userSpaceOnUse" gradientTransform="translate(45.7303 31.9647) rotate(101.3) scale(6.31379 6.1992)">
<stop stop-color="#00FFED"/>
<stop offset="1" stop-color="#00FFED" stop-opacity="0"/>
</radialGradient>
<radialGradient id="paint23_radial_1106_24019" cx="0" cy="0" r="1" gradientUnits="userSpaceOnUse" gradientTransform="translate(27.0271 32.1991) rotate(101.3) scale(6.31379 6.1992)">
<stop stop-color="#00FFED"/>
<stop offset="1" stop-color="#00FFED" stop-opacity="0"/>
</radialGradient>
<radialGradient id="paint24_radial_1106_24019" cx="0" cy="0" r="1" gradientUnits="userSpaceOnUse" gradientTransform="translate(36.7026 38.7097) rotate(90) scale(2.92654 4.58933)">
<stop stop-color="#00FFED"/>
<stop offset="1" stop-color="#00FFED" stop-opacity="0"/>
</radialGradient>
</defs>
</svg>
