<svg width="80" height="80" viewBox="0 0 80 80" fill="none" xmlns="http://www.w3.org/2000/svg">
<g clip-path="url(#clip0_1352_63367)">
<rect width="80" height="80" rx="40" fill="#6FC6A5"/>
<circle cx="-0.456291" cy="54.0441" r="65.8122" transform="rotate(-95.8997 -0.456291 54.0441)" fill="url(#paint0_linear_1352_63367)"/>
<g filter="url(#filter0_d_1352_63367)">
<path d="M16.8135 22.0197L17.7897 37.8686L19.0203 37.6686L17.1907 22.0197H16.8135Z" fill="url(#paint1_linear_1352_63367)"/>
<path style="mix-blend-mode:color-burn" d="M18.9732 37.2653L17.1904 22.0197H17.0925L16.8262 22.2197L16.8316 22.3012C16.9414 22.3393 17.1327 22.3295 17.1458 22.3067C17.1545 22.635 18.5558 37.2664 18.5558 37.2664H18.9743L18.9732 37.2653Z" fill="url(#paint2_linear_1352_63367)"/>
<path d="M17.4874 21.9109C17.4863 21.9033 17.4852 21.8968 17.4831 21.8892C17.4766 21.862 17.4689 21.8359 17.4581 21.8098C17.4559 21.8033 17.4515 21.7979 17.4494 21.7913C17.4407 21.7729 17.4309 21.7555 17.42 21.7381C17.4146 21.7283 17.4081 21.7196 17.4015 21.7098C17.3885 21.6913 17.3733 21.6729 17.357 21.6565C17.3472 21.6468 17.3374 21.6381 17.3265 21.6283C17.3178 21.6207 17.3081 21.612 17.2983 21.6044C17.2146 21.5402 17.1102 21.5 16.9961 21.5C16.7199 21.5 16.4971 21.7239 16.4971 21.999C16.4971 22.1088 16.5329 22.2088 16.5927 22.2914C16.6047 22.3077 16.6177 22.3229 16.6308 22.3382C16.6406 22.349 16.6504 22.3577 16.6612 22.3675C16.6721 22.3773 16.6841 22.3871 16.6971 22.3969C16.7091 22.4066 16.7221 22.4153 16.7351 22.423C16.7515 22.4338 16.7688 22.4425 16.7873 22.4512C16.7949 22.4545 16.8036 22.4588 16.8112 22.4621C16.8362 22.4719 16.8613 22.4795 16.8873 22.486C16.8939 22.4871 16.9004 22.4882 16.9058 22.4893C16.9352 22.4947 16.9645 22.498 16.995 22.498C17.2015 22.498 17.3787 22.3719 17.4548 22.1936C17.4798 22.1338 17.4939 22.0686 17.4939 21.999C17.4939 21.9685 17.4907 21.9392 17.4853 21.9098L17.4874 21.9109Z" fill="white"/>
<path d="M17.4893 22.0003C17.4893 22.2721 17.2686 22.4927 16.9969 22.4927C16.7251 22.4927 16.5044 22.2721 16.5044 22.0003C16.5044 21.7285 16.7251 21.5078 16.9969 21.5078C17.2686 21.5078 17.4893 21.7285 17.4893 22.0003Z" fill="white"/>
<path d="M17.4965 22.0002C17.4965 22.2763 17.2726 22.4992 16.9975 22.4992C16.7225 22.4992 16.4985 22.2752 16.4985 22.0002C16.4985 21.7252 16.7225 21.5012 16.9975 21.5012C17.2726 21.5012 17.4965 21.7252 17.4965 22.0002Z" fill="url(#paint3_radial_1352_63367)"/>
<path style="mix-blend-mode:color-burn" opacity="0.34" d="M17.2639 21.5795C17.3237 21.6621 17.3596 21.7621 17.3596 21.8719C17.3596 22.148 17.1356 22.3709 16.8606 22.3709C16.7627 22.3709 16.6714 22.3415 16.5942 22.2926C16.6845 22.4176 16.8312 22.4992 16.9976 22.4992C17.2737 22.4992 17.4965 22.2752 17.4965 22.0002C17.4965 21.823 17.403 21.6675 17.2628 21.5795H17.2639Z" fill="url(#paint4_linear_1352_63367)"/>
<path d="M62.9154 22.0311L61.1064 37.8062L62.3534 37.8246L63.2861 22.0974L62.9154 22.0311Z" fill="url(#paint5_linear_1352_63367)"/>
<path style="mix-blend-mode:color-burn" d="M62.3775 37.4195L63.2863 22.0967L63.1895 22.0793L62.8917 22.2294L62.8819 22.3098C62.9841 22.3663 63.1732 22.3903 63.1906 22.3696C63.1417 22.6946 61.9644 37.3456 61.9644 37.3456L62.3764 37.4185L62.3775 37.4195Z" fill="url(#paint6_linear_1352_63367)"/>
<path d="M63.5989 22.042C63.5989 22.0344 63.5989 22.0268 63.5989 22.0203C63.5978 21.992 63.5946 21.9649 63.588 21.9388C63.587 21.9322 63.5837 21.9257 63.5826 21.9181C63.5772 21.8985 63.5706 21.879 63.563 21.8605C63.5587 21.8496 63.5543 21.8398 63.55 21.8301C63.5402 21.8094 63.5282 21.7888 63.5163 21.7703C63.5087 21.7583 63.5 21.7485 63.4913 21.7366C63.4837 21.7268 63.4761 21.7181 63.4674 21.7083C63.3956 21.63 63.301 21.5724 63.188 21.5528C62.9162 21.505 62.6575 21.6855 62.6096 21.9573C62.5901 22.0649 62.6096 22.1703 62.6531 22.2616C62.6618 22.2801 62.6716 22.2975 62.6825 22.3138C62.6901 22.3258 62.6988 22.3367 62.7075 22.3486C62.7173 22.3606 62.7271 22.3725 62.7368 22.3834C62.7477 22.3943 62.7586 22.4051 62.7694 22.416C62.7836 22.4291 62.7988 22.441 62.8151 22.453C62.8227 22.4584 62.8292 22.4628 62.8368 22.4682C62.8597 22.4823 62.8836 22.4943 62.9086 22.5052C62.914 22.5073 62.9206 22.5095 62.9271 22.5117C62.9543 22.5215 62.9836 22.5312 63.013 22.5356C63.2162 22.5715 63.413 22.4791 63.5185 22.316C63.5533 22.2616 63.5793 22.1997 63.5913 22.1312C63.5967 22.1008 63.5978 22.0714 63.5978 22.042H63.5989Z" fill="white"/>
<path d="M63.5846 22.1299C63.5367 22.3974 63.2813 22.5756 63.0138 22.5289C62.7464 22.4811 62.5681 22.2256 62.6149 21.9582C62.6627 21.6907 62.9182 21.5125 63.1856 21.5592C63.453 21.607 63.6313 21.8625 63.5846 22.1299Z" fill="white"/>
<path d="M63.5924 22.1312C63.5446 22.4029 63.2848 22.5834 63.0141 22.5356C62.7434 22.4877 62.5619 22.2279 62.6097 21.9572C62.6575 21.6865 62.9173 21.505 63.188 21.5528C63.4598 21.6006 63.6403 21.8605 63.5924 22.1312Z" fill="url(#paint7_radial_1352_63367)"/>
<path style="mix-blend-mode:color-burn" opacity="0.34" d="M63.4351 21.6764C63.4796 21.7677 63.4981 21.8732 63.4786 21.9808C63.4307 22.2526 63.1709 22.433 62.9002 22.3852C62.8035 22.3678 62.7197 22.3232 62.6523 22.2623C62.7197 22.4015 62.8491 22.508 63.0133 22.5363C63.285 22.5841 63.5438 22.4037 63.5916 22.1319C63.6231 21.9569 63.5579 21.7884 63.4351 21.6764Z" fill="url(#paint8_linear_1352_63367)"/>
<path d="M22.0545 30.3668C17.0832 34.4891 17.5985 50.8957 22.0545 54.3397C27.4368 58.5001 33.0506 58.5001 39.7864 58.5001C46.5221 58.5001 56.5604 57.9391 59.2021 53.7451C62.4711 48.5563 62.0058 35.4001 58.8716 31.0604C54.5786 25.1171 34.2388 20.2632 22.0534 30.3668H22.0545Z" fill="url(#paint9_linear_1352_63367)"/>
<path d="M19.0995 36.7384C17.6635 36.8047 13.9151 37.382 14.6087 44.0688C15.3023 50.7556 17.4776 50.8078 19.7996 50.7317C20.8172 47.3377 19.0995 36.7384 19.0995 36.7384Z" fill="url(#paint10_linear_1352_63367)"/>
<path style="mix-blend-mode:color-burn" d="M48.9233 27.3172C49.3418 26.8574 47.8645 25.792 46.598 25.1441C44.1259 24.6831 41.4614 24.4549 38.7501 24.5429L36.9238 25.0832C36.2813 25.1441 35.6377 25.2245 34.9964 25.3213C33.0863 26.1584 32.0601 27.0106 32.7721 27.4488C33.5244 27.9108 48.0808 28.2413 48.9233 27.3161V27.3172Z" fill="url(#paint11_linear_1352_63367)"/>
<path style="mix-blend-mode:color-burn" d="M25.1916 32.1991C21.7422 34.5701 21.4933 49.6983 24.9274 52.3323C26.6016 53.6162 33.4406 53.0846 40.335 53.0466C47.5806 53.0074 54.886 53.402 56.3188 52.3323C58.9931 50.3342 60.0096 34.7668 55.9231 32.1991C52.7977 30.2347 27.0256 30.9391 25.1916 32.1991Z" fill="url(#paint12_linear_1352_63367)"/>
<path d="M24.8396 31.8968C21.3902 34.2351 21.1412 49.1557 24.5754 51.7528C26.2495 53.0193 33.0886 52.4942 39.983 52.4573C47.2286 52.4181 54.534 52.8084 55.9668 51.7528C58.641 49.783 59.6575 34.4297 55.571 31.8968C52.4456 29.9595 26.6735 30.6542 24.8396 31.8968Z" fill="url(#paint13_linear_1352_63367)"/>
<path style="mix-blend-mode:color-burn" d="M56.8757 52.5959C48.2245 58.1456 22.4024 55.6311 20.1357 51.5914C20.6576 52.7981 21.2989 53.7558 22.0545 54.3396C27.4368 58.5 33.0506 58.5 39.7863 58.5C46.5221 58.5 56.5604 57.939 59.2021 53.745C62.471 48.5562 62.0057 35.4 58.8716 31.0603C58.2291 30.171 57.2246 29.3057 55.944 28.511C62.5971 35.0695 58.4596 51.3392 56.8746 52.5959H56.8757Z" fill="url(#paint14_linear_1352_63367)"/>
<path d="M60.899 36.7384C62.335 36.8047 66.0834 37.382 65.3898 44.0688C64.6962 50.7556 62.8003 50.8197 60.4794 50.7447C59.1868 43.4796 60.899 36.7384 60.899 36.7384Z" fill="url(#paint15_linear_1352_63367)"/>
<path style="mix-blend-mode:color-burn" d="M16.8653 37.3237C15.477 38.0967 14.1758 39.8893 14.6084 44.0692C15.0998 48.8058 16.3348 50.2136 17.8382 50.6039C17.8458 50.6006 17.8534 50.5984 17.8611 50.5952C18.5166 49.3569 17.6904 38.1075 16.8642 37.3237H16.8653Z" fill="url(#paint16_linear_1352_63367)"/>
<path style="mix-blend-mode:color-burn" d="M63.1157 37.3141C62.0547 41.157 62.2416 49.7397 62.8069 50.4594C64.0212 49.8974 64.9496 48.3232 65.391 44.0694C65.8269 39.871 64.5104 38.0816 63.1157 37.3141Z" fill="url(#paint17_linear_1352_63367)"/>
<path d="M48.1074 26.9212C48.5629 26.4038 47.2051 25.6178 45.9212 25.0253C43.6568 24.6481 41.2478 24.4665 38.7996 24.5415L36.5123 24.6872C35.8916 24.7481 35.2697 24.8285 34.6501 24.9253C32.8042 25.7624 31.8127 26.6147 32.5009 27.0528C33.2271 27.5148 47.2943 27.8453 48.1085 26.9201L48.1074 26.9212Z" fill="url(#paint18_linear_1352_63367)"/>
<path style="mix-blend-mode:screen" opacity="0.8" d="M41.6235 24.5667C40.6918 24.5221 39.7493 24.5123 38.8002 24.5416L36.513 24.6873C35.8922 24.7482 35.2704 24.8286 34.6507 24.9254C33.1864 25.5896 32.2613 26.2625 32.2841 26.7311C37.3598 27.4171 41.1549 26.0408 41.6245 24.5667H41.6235Z" fill="url(#paint19_linear_1352_63367)"/>
<path style="mix-blend-mode:screen" opacity="0.8" d="M58.2573 39.6C58.053 36.0865 57.2355 32.9284 55.5711 31.8968C52.4456 29.9595 26.6736 30.6542 24.8396 31.8968C22.7545 33.31 21.8392 39.3184 22.199 44.4257C23.36 41.0372 51.0552 37.2932 58.2573 39.6Z" fill="url(#paint20_linear_1352_63367)"/>
<g style="mix-blend-mode:screen" opacity="0.3">
<path d="M55.5717 31.8968C52.4463 29.9595 26.6742 30.6542 24.8403 31.8968C24.0282 32.4468 23.3944 33.6959 22.9443 35.3146C23.9575 32.8882 33.8535 29.7128 56.4273 32.699C56.1718 32.3642 55.887 32.0924 55.5717 31.8968Z" fill="white"/>
</g>
<g style="mix-blend-mode:screen" opacity="0.3">
<path d="M29.8654 31.1083C27.2009 31.317 25.2919 31.5899 24.8397 31.8964C24.2015 32.3291 23.6732 33.1934 23.2568 34.3294C24.0885 35.672 30.9133 33.2281 29.8643 31.1083H29.8654Z" fill="white"/>
</g>
<path style="mix-blend-mode:screen" opacity="0.4" d="M25.9253 51.7576C28.4593 52.1283 34.4145 51.9195 40.1577 51.9326C47.3859 51.95 54.3815 52.1011 54.9435 51.7576C53.1443 51.5695 46.6923 51.1879 40.224 51.2303C33.0643 51.2771 25.9253 51.7576 25.9253 51.7576Z" fill="url(#paint21_linear_1352_63367)"/>
<g style="mix-blend-mode:screen">
<path d="M30.4778 27.247C30.6713 27.7177 29.8212 28.5135 28.5797 29.0234C27.3383 29.5332 26.1751 29.5647 25.9816 29.0929C25.788 28.6211 26.6382 27.8265 27.8796 27.3166C29.1211 26.8068 30.2843 26.7752 30.4778 27.247Z" fill="white"/>
</g>
<g style="mix-blend-mode:screen">
<path d="M25.037 29.8831C25.2066 30.1277 24.8218 30.6876 24.1771 31.1333C23.5336 31.579 22.8737 31.7421 22.7041 31.4986C22.5345 31.254 22.9193 30.6941 23.564 30.2484C24.2076 29.8027 24.8674 29.6396 25.037 29.8831Z" fill="white"/>
</g>
<g style="mix-blend-mode:screen" opacity="0.3">
<path d="M36.2174 24.7212C35.6945 24.7777 35.1716 24.844 34.6498 24.9267C34.1964 25.1321 33.1843 25.6061 32.644 26.1225C34.2127 26.1757 35.6825 25.3408 36.2174 24.7212Z" fill="white"/>
</g>
<path style="mix-blend-mode:screen" opacity="0.4" d="M14.5772 43.7301C16.3502 43.3724 17.5287 39.7947 16.8655 37.3237C15.5153 38.0749 14.2478 39.7926 14.5772 43.7301Z" fill="url(#paint22_linear_1352_63367)"/>
<path d="M54.1892 43.4907C54.8374 40.2466 52.7808 37.1009 49.5956 36.4644C46.4105 35.8279 43.3029 37.9418 42.6547 41.1858C42.0064 44.4299 44.063 47.5756 47.2482 48.2121C50.4334 48.8486 53.5409 46.7347 54.1892 43.4907Z" fill="url(#paint23_radial_1352_63367)"/>
<path d="M36.4445 43.7129C37.0928 40.4689 35.0362 37.3231 31.851 36.6867C28.6658 36.0502 25.5583 38.1641 24.91 41.4081C24.2618 44.6522 26.3184 47.7979 29.5036 48.4344C32.6887 49.0709 35.7963 46.957 36.4445 43.7129Z" fill="url(#paint24_radial_1352_63367)"/>
<path d="M51.3642 42.6353C51.5581 40.7461 50.3954 39.0792 48.7673 38.9121C47.1392 38.745 45.6621 40.141 45.4683 42.0301C45.2744 43.9192 46.437 45.5861 48.0652 45.7532C49.6933 45.9203 51.1703 44.5244 51.3642 42.6353Z" fill="white"/>
<path d="M27.7242 42.8574C27.5303 40.9683 28.693 39.3014 30.3211 39.1343C31.9492 38.9672 33.4262 40.3632 33.6201 42.2523C33.814 44.1414 32.6513 45.8083 31.0232 45.9754C29.3951 46.1425 27.9181 44.7465 27.7242 42.8574Z" fill="white"/>
<g filter="url(#filter1_f_1352_63367)">
<path d="M35.5238 47.5124C36.6794 52.8925 43.2673 52.7925 44.1935 47.5461C44.2913 46.9906 43.9772 46.5753 43.476 46.4546C40.0962 45.6393 37.5784 45.9719 36.2576 46.4688C35.7912 46.6438 35.4097 46.9786 35.5238 47.5124Z" fill="url(#paint25_radial_1352_63367)"/>
</g>
<path d="M36.9336 47.983C37.7424 50.8193 41.8636 50.8171 42.7877 48.0037C42.8964 47.6732 42.6507 47.3329 42.3028 47.3362C39.5122 47.3601 38.112 47.3536 37.4282 47.3449C37.0923 47.3406 36.8412 47.6602 36.9325 47.983H36.9336Z" fill="white"/>
</g>
<circle cx="179" cy="-12.4998" r="94" transform="rotate(-11.6536 179 -12.4998)" fill="url(#paint26_linear_1352_63367)"/>
</g>
<defs>
<filter id="filter0_d_1352_63367" x="3.13938" y="8.21803" width="73.7212" height="59.7692" filterUnits="userSpaceOnUse" color-interpolation-filters="sRGB">
<feFlood flood-opacity="0" result="BackgroundImageFix"/>
<feColorMatrix in="SourceAlpha" type="matrix" values="0 0 0 0 0 0 0 0 0 0 0 0 0 0 0 0 0 0 127 0" result="hardAlpha"/>
<feOffset dy="-1.89742"/>
<feGaussianBlur stdDeviation="5.69227"/>
<feComposite in2="hardAlpha" operator="out"/>
<feColorMatrix type="matrix" values="0 0 0 0 0.115818 0 0 0 0 0.125 0 0 0 0 0.0895833 0 0 0 0.08 0"/>
<feBlend mode="normal" in2="BackgroundImageFix" result="effect1_dropShadow_1352_63367"/>
<feBlend mode="normal" in="SourceGraphic" in2="effect1_dropShadow_1352_63367" result="shape"/>
</filter>
<filter id="filter1_f_1352_63367" x="34.5547" y="45.0126" width="10.6054" height="7.45028" filterUnits="userSpaceOnUse" color-interpolation-filters="sRGB">
<feFlood flood-opacity="0" result="BackgroundImageFix"/>
<feBlend mode="normal" in="SourceGraphic" in2="BackgroundImageFix" result="shape"/>
<feGaussianBlur stdDeviation="0.474356" result="effect1_foregroundBlur_1352_63367"/>
</filter>
<linearGradient id="paint0_linear_1352_63367" x1="-48.4444" y1="104.317" x2="48.4459" y2="17.9388" gradientUnits="userSpaceOnUse">
<stop stop-color="white" stop-opacity="0.24"/>
<stop offset="1" stop-color="white" stop-opacity="0"/>
</linearGradient>
<linearGradient id="paint1_linear_1352_63367" x1="16.8135" y1="29.9436" x2="19.0203" y2="29.9436" gradientUnits="userSpaceOnUse">
<stop offset="0.27" stop-color="#DCFDFF"/>
<stop offset="1" stop-color="#B5FFE3"/>
</linearGradient>
<linearGradient id="paint2_linear_1352_63367" x1="18.422" y1="36.1814" x2="17.1284" y2="20.2814" gradientUnits="userSpaceOnUse">
<stop stop-color="#96D3BC"/>
<stop offset="0.43" stop-color="#95D2BB"/>
<stop offset="0.58" stop-color="#9CD5BF"/>
<stop offset="0.69" stop-color="#AADCC9"/>
<stop offset="0.78" stop-color="#BAE0D2"/>
<stop offset="0.86" stop-color="#CAE8DC"/>
<stop offset="0.92" stop-color="#E3F0EB"/>
<stop offset="0.97" stop-color="white"/>
</linearGradient>
<radialGradient id="paint3_radial_1352_63367" cx="0" cy="0" r="1" gradientUnits="userSpaceOnUse" gradientTransform="translate(16.9269 21.9045) scale(0.626176 0.626175)">
<stop stop-color="#DCFDFF"/>
<stop offset="0.39" stop-color="#DAFAFF"/>
<stop offset="0.58" stop-color="#D6FFEF"/>
<stop offset="0.74" stop-color="#D7FFF0"/>
<stop offset="0.87" stop-color="#C9FFEA"/>
<stop offset="1" stop-color="#B9FFE4"/>
</radialGradient>
<linearGradient id="paint4_linear_1352_63367" x1="16.5942" y1="22.0393" x2="17.4965" y2="22.0393" gradientUnits="userSpaceOnUse">
<stop stop-color="#95D0BA"/>
<stop offset="0.43" stop-color="#94CEB8"/>
<stop offset="0.58" stop-color="#9AD3BE"/>
<stop offset="0.69" stop-color="#AADCC9"/>
<stop offset="0.78" stop-color="#B3DECE"/>
<stop offset="0.86" stop-color="#C9E7DB"/>
<stop offset="0.92" stop-color="#E4F3EE"/>
<stop offset="0.97" stop-color="white"/>
</linearGradient>
<linearGradient id="paint5_linear_1352_63367" x1="61.5291" y1="29.842" x2="63.703" y2="30.228" gradientUnits="userSpaceOnUse">
<stop offset="0.27" stop-color="#DCFDFF"/>
<stop offset="1" stop-color="#B5FFE3"/>
</linearGradient>
<linearGradient id="paint6_linear_1352_63367" x1="62.0227" y1="36.2643" x2="63.5291" y2="20.383" gradientUnits="userSpaceOnUse">
<stop stop-color="#93D1BA"/>
<stop offset="0.43" stop-color="#95D2BB"/>
<stop offset="0.58" stop-color="#9BD6BF"/>
<stop offset="0.69" stop-color="#A8DCC8"/>
<stop offset="0.78" stop-color="#B6DECF"/>
<stop offset="0.86" stop-color="#C9E6DB"/>
<stop offset="0.92" stop-color="#E5F1ED"/>
<stop offset="0.97" stop-color="white"/>
</linearGradient>
<radialGradient id="paint7_radial_1352_63367" cx="0" cy="0" r="1" gradientUnits="userSpaceOnUse" gradientTransform="translate(63.0469 21.9453) rotate(10.07) scale(0.626173 0.626175)">
<stop stop-color="#DCFDFF"/>
<stop offset="0.39" stop-color="#DAFAFF"/>
<stop offset="0.58" stop-color="#D5FFEF"/>
<stop offset="0.74" stop-color="#CEFFED"/>
<stop offset="0.87" stop-color="#BFFFE7"/>
<stop offset="1" stop-color="#B1FFE2"/>
</radialGradient>
<linearGradient id="paint8_linear_1352_63367" x1="62.695" y1="22.0206" x2="63.5834" y2="22.1784" gradientUnits="userSpaceOnUse">
<stop stop-color="#94D1BA"/>
<stop offset="0.43" stop-color="#94D0BA"/>
<stop offset="0.58" stop-color="#9DD3BF"/>
<stop offset="0.69" stop-color="#A4D8C4"/>
<stop offset="0.78" stop-color="#BAE1D2"/>
<stop offset="0.86" stop-color="#D0ECE1"/>
<stop offset="0.92" stop-color="#E6F3EE"/>
<stop offset="0.97" stop-color="white"/>
</linearGradient>
<linearGradient id="paint9_linear_1352_63367" x1="29.5643" y1="26.8391" x2="53.6731" y2="62.3615" gradientUnits="userSpaceOnUse">
<stop stop-color="#E6FEFF"/>
<stop offset="1" stop-color="#C5FFE9"/>
</linearGradient>
<linearGradient id="paint10_linear_1352_63367" x1="16.659" y1="41.026" x2="18.8984" y2="46.156" gradientUnits="userSpaceOnUse">
<stop stop-color="#0097B6"/>
<stop offset="1" stop-color="#005F73"/>
</linearGradient>
<linearGradient id="paint11_linear_1352_63367" x1="34.4963" y1="16.1819" x2="43.2247" y2="31.3808" gradientUnits="userSpaceOnUse">
<stop stop-color="white"/>
<stop offset="0.12" stop-color="#EDF8F4"/>
<stop offset="0.36" stop-color="#CBE6DB"/>
<stop offset="0.69" stop-color="#8BC6B0"/>
<stop offset="0.82" stop-color="#74BEA2"/>
</linearGradient>
<linearGradient id="paint12_linear_1352_63367" x1="37.7358" y1="37.3487" x2="55.6111" y2="69.0379" gradientUnits="userSpaceOnUse">
<stop offset="0.39" stop-color="#6FB69B"/>
<stop offset="1" stop-color="white"/>
</linearGradient>
<linearGradient id="paint13_linear_1352_63367" x1="31.9449" y1="27.2646" x2="49.6876" y2="58.7201" gradientUnits="userSpaceOnUse">
<stop stop-color="#009ABA"/>
<stop offset="0.83" stop-color="#002F39"/>
</linearGradient>
<linearGradient id="paint14_linear_1352_63367" x1="46.4481" y1="47.4876" x2="65.9965" y2="63.6213" gradientUnits="userSpaceOnUse">
<stop stop-color="white"/>
<stop offset="0.11" stop-color="#E8F4F0"/>
<stop offset="0.32" stop-color="#C9E6DB"/>
<stop offset="0.61" stop-color="#8BC5AF"/>
<stop offset="0.73" stop-color="#6DB398"/>
</linearGradient>
<linearGradient id="paint15_linear_1352_63367" x1="59.9304" y1="41.2129" x2="62.9514" y2="45.282" gradientUnits="userSpaceOnUse">
<stop stop-color="#27B2CF"/>
<stop offset="1" stop-color="#005F73"/>
</linearGradient>
<linearGradient id="paint16_linear_1352_63367" x1="15.7129" y1="41.2134" x2="19.4504" y2="53.0292" gradientUnits="userSpaceOnUse">
<stop stop-color="white"/>
<stop offset="0.11" stop-color="#EBF5F2"/>
<stop offset="0.32" stop-color="#CEEADF"/>
<stop offset="0.61" stop-color="#8BC6B0"/>
<stop offset="0.73" stop-color="#73BBA0"/>
</linearGradient>
<linearGradient id="paint17_linear_1352_63367" x1="62.0721" y1="39.2481" x2="65.6606" y2="50.5931" gradientUnits="userSpaceOnUse">
<stop stop-color="white"/>
<stop offset="0.15" stop-color="#E8F5F0"/>
<stop offset="0.43" stop-color="#C7E4D9"/>
<stop offset="0.82" stop-color="#88C1AC"/>
<stop offset="0.98" stop-color="#6EB69A"/>
</linearGradient>
<linearGradient id="paint18_linear_1352_63367" x1="37.9712" y1="22.7489" x2="45.8984" y2="36.5519" gradientUnits="userSpaceOnUse">
<stop stop-color="#25B5D3"/>
<stop offset="0.5" stop-color="#005F73"/>
</linearGradient>
<linearGradient id="paint19_linear_1352_63367" x1="34.3463" y1="21.1096" x2="38.0099" y2="27.4899" gradientUnits="userSpaceOnUse">
<stop offset="0.04" stop-color="#197CE6"/>
<stop offset="0.09" stop-color="#1670D1"/>
<stop offset="0.21" stop-color="#10559F"/>
<stop offset="0.34" stop-color="#0B3E73"/>
<stop offset="0.47" stop-color="#072A50"/>
<stop offset="0.6" stop-color="#041C35"/>
<stop offset="0.73" stop-color="#011121"/>
<stop offset="0.86" stop-color="#000B15"/>
<stop offset="1" stop-color="#000912"/>
</linearGradient>
<linearGradient id="paint20_linear_1352_63367" x1="22.1349" y1="8.61197" x2="45.3675" y2="49.0644" gradientUnits="userSpaceOnUse">
<stop offset="0.04" stop-color="#197CE6"/>
<stop offset="0.09" stop-color="#1670D1"/>
<stop offset="0.21" stop-color="#10559F"/>
<stop offset="0.34" stop-color="#0B3E73"/>
<stop offset="0.47" stop-color="#072A50"/>
<stop offset="0.6" stop-color="#041C35"/>
<stop offset="0.73" stop-color="#011121"/>
<stop offset="0.86" stop-color="#000B15"/>
<stop offset="1" stop-color="#000912"/>
</linearGradient>
<linearGradient id="paint21_linear_1352_63367" x1="25.9253" y1="51.6032" x2="54.9435" y2="51.6032" gradientUnits="userSpaceOnUse">
<stop offset="0.04" stop-color="#197CE6"/>
<stop offset="0.09" stop-color="#1670D1"/>
<stop offset="0.21" stop-color="#10559F"/>
<stop offset="0.34" stop-color="#0B3E73"/>
<stop offset="0.47" stop-color="#072A50"/>
<stop offset="0.6" stop-color="#041C35"/>
<stop offset="0.73" stop-color="#011121"/>
<stop offset="0.86" stop-color="#000B15"/>
<stop offset="1" stop-color="#000912"/>
</linearGradient>
<linearGradient id="paint22_linear_1352_63367" x1="13.7553" y1="38.2619" x2="16.2263" y2="41.1101" gradientUnits="userSpaceOnUse">
<stop stop-color="#197CE6"/>
<stop offset="0.21" stop-color="#125DAE"/>
<stop offset="0.48" stop-color="#0A396B"/>
<stop offset="0.71" stop-color="#041F3B"/>
<stop offset="0.89" stop-color="#010F1D"/>
<stop offset="0.99" stop-color="#000912"/>
</linearGradient>
<radialGradient id="paint23_radial_1352_63367" cx="0" cy="0" r="1" gradientUnits="userSpaceOnUse" gradientTransform="translate(48.4219 42.3382) rotate(101.3) scale(5.98997 5.88126)">
<stop stop-color="#00FFED"/>
<stop offset="1" stop-color="#00FFED" stop-opacity="0"/>
</radialGradient>
<radialGradient id="paint24_radial_1352_63367" cx="0" cy="0" r="1" gradientUnits="userSpaceOnUse" gradientTransform="translate(30.6773 42.5605) rotate(101.3) scale(5.98997 5.88126)">
<stop stop-color="#00FFED"/>
<stop offset="1" stop-color="#00FFED" stop-opacity="0"/>
</radialGradient>
<radialGradient id="paint25_radial_1352_63367" cx="0" cy="0" r="1" gradientUnits="userSpaceOnUse" gradientTransform="translate(39.8574 48.7378) rotate(90) scale(2.77645 4.35395)">
<stop stop-color="#00FFED"/>
<stop offset="1" stop-color="#00FFED" stop-opacity="0"/>
</radialGradient>
<linearGradient id="paint26_linear_1352_63367" x1="110.458" y1="59.3057" x2="248.847" y2="-64.0693" gradientUnits="userSpaceOnUse">
<stop stop-color="white" stop-opacity="0.24"/>
<stop offset="1" stop-color="white" stop-opacity="0"/>
</linearGradient>
<clipPath id="clip0_1352_63367">
<rect width="80" height="80" rx="40" fill="white"/>
</clipPath>
</defs>
</svg>
