<svg width="24" height="24" viewBox="0 0 24 24" fill="none" xmlns="http://www.w3.org/2000/svg">
<g id="ic:baseline-business-center">
<path id="Vector" fill-rule="evenodd" clip-rule="evenodd" d="M10 16V15H3.01L3 19C3 20.11 3.89 21 5 21H15L14.0645 19.1289C14.026 19.0519 14.0411 18.9589 14.1019 18.8981L15.3275 17.6725C15.4167 17.5833 15.402 17.4347 15.297 17.3647L14.1271 16.5847C14.0521 16.5347 14.0198 16.4406 14.0483 16.3551L14.5 15H14V16H10ZM20 7H15.99V5L13.99 3H9.99L7.99 5V7H4C2.9 7 2 7.9 2 9V12C2 13.11 2.89 14 4 14H10V12H14V14H17.5V12.2C17.5 12.0895 17.5895 12 17.7 12H20.3C20.4105 12 20.5 12.0895 20.5 12.2V13.9363C21.3601 13.7128 22 12.9275 22 12V9C22 7.9 21.1 7 20 7ZM14 7H10V5H14V7Z" fill="#121212"/>
<path id="Vector_2" d="M22.1709 14.4693L19.8291 15.939V13H18.1709V15.939L15.8291 14.4693L15 16.0305L17.3414 17.4998L15 18.9691L15.8291 20.5303L18.1709 19.061V22H19.8291V19.061L22.1709 20.5303L23 18.9691L20.6586 17.4998L23 16.0305L22.1709 14.4693Z" fill="#121212"/>
</g>
</svg>
