<svg width="24" height="24" viewBox="0 0 24 24" fill="none" xmlns="http://www.w3.org/2000/svg">
<path d="M22.2137 10.2357L19.9349 10.0168C19.7804 9.49753 19.5701 8.99112 19.3126 8.51475L20.7675 6.75088C20.9091 6.5792 20.8962 6.33028 20.7417 6.17578L18.4242 3.85827C18.2697 3.70378 18.0208 3.69092 17.8491 3.83252L16.0853 5.28741C15.6089 5.02992 15.1067 4.8239 14.5832 4.66511L14.3643 2.38623C14.3428 2.16738 14.1583 2 13.9394 2H10.6606C10.4417 2 10.2572 2.16738 10.2357 2.38623L10.0168 4.66511C9.49326 4.8239 8.99112 5.02992 8.51475 5.28741L6.75088 3.83252C6.5792 3.69092 6.3303 3.70378 6.17578 3.85827L3.8583 6.17578C3.70378 6.33028 3.69092 6.5792 3.83255 6.75088L5.28741 8.51475C5.02992 8.99112 4.81963 9.49753 4.66514 10.0168L2.38626 10.2357C2.16738 10.2572 2 10.4417 2 10.6606V13.9394C2 14.1583 2.16738 14.3428 2.38626 14.3643L4.66514 14.5832C4.81963 15.1024 5.02992 15.6089 5.28741 16.0853L3.83255 17.8491C3.69092 18.0208 3.70378 18.2697 3.8583 18.4242L6.17578 20.7417C6.3303 20.8962 6.5835 20.9091 6.75088 20.7675L8.51475 19.3126C8.99112 19.5701 9.49326 19.7761 10.0168 19.9349L10.2357 22.2137C10.2572 22.4326 10.4417 22.6 10.6606 22.6H13.9394C14.1583 22.6 14.3428 22.4326 14.3643 22.2137L14.5832 19.9349C15.1067 19.7761 15.6089 19.5701 16.0853 19.3126L17.8491 20.7675C18.0208 20.9091 18.2697 20.8962 18.4242 20.7417L20.7417 18.4242C20.8962 18.2697 20.9091 18.0208 20.7675 17.8491L19.3126 16.0853C19.5701 15.6089 19.7804 15.1024 19.9349 14.5832L22.2137 14.3643C22.4326 14.3428 22.6 14.1583 22.6 13.9394V10.6606C22.6 10.4417 22.4326 10.2572 22.2137 10.2357ZM12.3 17.45C9.45892 17.45 7.15 15.1411 7.15 12.3C7.15 9.45892 9.45892 7.15 12.3 7.15C15.1411 7.15 17.45 9.45892 17.45 12.3C17.45 15.1411 15.1411 17.45 12.3 17.45Z" fill="#797E92"/>
<path d="M14.0081 12.7292V16.2355C15.42 15.6218 16.4415 14.2656 16.5745 12.6605C16.5444 12.4545 16.3685 12.3 16.1539 12.3H14.4372C14.2012 12.3 14.0081 12.4931 14.0081 12.7292Z" fill="#797E92"/>
<path d="M13.1585 9.72502H11.4419C11.2058 9.72502 11.0127 9.91815 11.0127 10.1542V16.3943C11.4204 16.523 11.8496 16.5917 12.3002 16.5917C12.7508 16.5917 13.18 16.523 13.5877 16.3943V10.1542C13.5877 9.91815 13.3946 9.72502 13.1585 9.72502Z" fill="#797E92"/>
<path d="M10.1629 12.3H8.44624C8.23165 12.3 8.05568 12.4545 8.02563 12.6605C8.15868 14.2656 9.18009 15.6218 10.5921 16.2355V12.7292C10.5921 12.4931 10.3989 12.3 10.1629 12.3Z" fill="#797E92"/>
</svg>
