<svg width="15" height="18" viewBox="0 0 15 18" fill="none" xmlns="http://www.w3.org/2000/svg">
<path d="M2.16667 17.3337C1.70833 17.3337 1.31597 17.1705 0.989583 16.8441C0.663194 16.5177 0.5 16.1253 0.5 15.667V4.00033H2.16667V15.667H11.3333V17.3337H2.16667ZM5.5 14.0003C5.04167 14.0003 4.64931 13.8371 4.32292 13.5107C3.99653 13.1844 3.83333 12.792 3.83333 12.3337V2.33366C3.83333 1.87533 3.99653 1.48296 4.32292 1.15658C4.64931 0.830187 5.04167 0.666992 5.5 0.666992H13C13.4583 0.666992 13.8507 0.830187 14.1771 1.15658C14.5035 1.48296 14.6667 1.87533 14.6667 2.33366V12.3337C14.6667 12.792 14.5035 13.1844 14.1771 13.5107C13.8507 13.8371 13.4583 14.0003 13 14.0003H5.5ZM5.5 12.3337H13V2.33366H5.5V12.3337Z" fill="#9FC33C"/>
</svg>
