<svg width="24" height="24" viewBox="0 0 24 24" fill="none" xmlns="http://www.w3.org/2000/svg">
<path d="M2.99996 5.00002H21C21.1822 5.00059 21.3608 5.05085 21.5166 5.1454C21.6724 5.23994 21.7995 5.37518 21.8842 5.53657C21.9688 5.69796 22.0078 5.87938 21.9971 6.0613C21.9863 6.24322 21.9261 6.41876 21.823 6.56902L12.823 19.569C12.45 20.108 11.552 20.108 11.178 19.569L2.17796 6.56902C2.07379 6.41907 2.0127 6.24345 2.00133 6.06122C1.98996 5.879 2.02875 5.69714 2.11348 5.53541C2.19821 5.37368 2.32564 5.23826 2.48193 5.14387C2.63822 5.04948 2.81738 4.99973 2.99996 5.00002Z" fill="#A0A4B6"/>
</svg>
