<svg width="13" height="12" viewBox="0 0 13 12" fill="none" xmlns="http://www.w3.org/2000/svg">
<path fill-rule="evenodd" clip-rule="evenodd" d="M6.29321 11.7072C6.10574 11.5197 6.00043 11.2654 6.00043 11.0002C6.00043 10.735 6.10574 10.4807 6.29321 10.2932L10.5862 6.00021L6.29321 1.70721C6.11105 1.51861 6.01026 1.26601 6.01254 1.00381C6.01482 0.741616 6.11999 0.490803 6.30539 0.305395C6.4908 0.119987 6.74162 0.0148172 7.00381 0.0125389C7.26601 0.0102606 7.51861 0.111054 7.70721 0.293213L12.7072 5.29321C12.8947 5.48074 13 5.73505 13 6.00021C13 6.26538 12.8947 6.51969 12.7072 6.70721L7.70721 11.7072C7.51969 11.8947 7.26538 12 7.00021 12C6.73505 12 6.48074 11.8947 6.29321 11.7072ZM0.293211 11.7072C0.105741 11.5197 0.000425339 11.2654 0.000425339 11.0002C0.000425339 10.735 0.105741 10.4807 0.293211 10.2932L4.58621 6.00021L0.293211 1.70721C0.111053 1.51861 0.0102587 1.26601 0.012537 1.00381C0.0148153 0.741616 0.119986 0.490803 0.305393 0.305395C0.490802 0.119987 0.741614 0.0148172 1.00381 0.0125389C1.26601 0.0102606 1.51861 0.111054 1.70721 0.293213L6.70721 5.29321C6.89468 5.48074 7 5.73505 7 6.00021C7 6.26538 6.89468 6.51969 6.70721 6.70721L1.70721 11.7072C1.51969 11.8947 1.26538 12 1.00021 12C0.735048 12 0.480739 11.8947 0.293211 11.7072Z" fill="#5C5C5A"/>
</svg>
