<svg width="24" height="24" viewBox="0 0 24 22" fill="none" xmlns="http://www.w3.org/2000/svg">
<path d="M21 0H3C1.346 0 0 1.346 0 3V19C0 20.654 1.346 22 3 22H21C22.654 22 24 20.654 24 19V3C24 1.346 22.654 0 21 0ZM16.5 8.5V11H13V8.5H16.5ZM11 11H7.5V8.5H11V11ZM5.5 11H2V8.5H5.5V11ZM5.5 13V15.5H2V13H5.5ZM7.5 13H11V15.5H7.5V13ZM11 17.5V20H7.5V17.5H11ZM13 17.5H16.5V20H13V17.5ZM13 15.5V13H16.5V15.5H13ZM18.5 13H22V15.5H18.5V13ZM18.5 11V8.5H22V11H18.5ZM2 19V17.5H5.5V20H3C2.449 20 2 19.551 2 19ZM21 20H18.5V17.5H22V19C22 19.551 21.551 20 21 20Z" fill="#797E92"/>
</svg>
