<svg width="30" height="35" viewBox="0 0 30 35" fill="none" xmlns="http://www.w3.org/2000/svg">
<path opacity="0.999" fill-rule="evenodd" clip-rule="evenodd" d="M5.8479 0.5C10.9833 0.5 16.1188 0.5 21.2542 0.5C21.2431 2.78006 21.2542 5.06 21.2874 7.33984C21.6347 8.38528 22.3542 8.93864 23.4456 9C25.5263 11.125 27.6292 13.2279 29.7542 15.3086C29.7652 21.1745 29.7542 27.0404 29.7209 32.9062C29.6285 33.2857 29.4514 33.6177 29.1897 33.9023C28.8842 34.1763 28.5412 34.3756 28.1604 34.5C20.7229 34.5 13.2854 34.5 5.8479 34.5C5.22242 34.2843 4.74649 33.8859 4.42017 33.3047C4.37589 33.1719 4.33163 33.0391 4.28735 32.9062C4.25416 32.0211 4.24309 31.1357 4.25415 30.25C11.0719 30.2611 17.8896 30.25 24.7073 30.2168C25.0184 30.1271 25.2508 29.939 25.4045 29.6523C25.4955 29.2378 25.5287 28.8173 25.5042 28.3906C25.5152 24.6497 25.5042 20.9088 25.4709 17.168C25.3211 16.8189 25.0665 16.5864 24.7073 16.4707C17.8896 16.4375 11.0719 16.4264 4.25415 16.4375C4.24308 11.6562 4.25415 6.87495 4.28735 2.09375C4.37981 1.71432 4.5569 1.38229 4.8186 1.09766C5.12407 0.82365 5.46713 0.624431 5.8479 0.5Z" fill="#ECEFF2"/>
<path fill-rule="evenodd" clip-rule="evenodd" d="M21.2542 0.5C21.2763 0.5 21.2985 0.5 21.3206 0.5C24.1096 3.3112 26.8987 6.1224 29.6878 8.93359C27.6184 8.99987 25.5376 9.02205 23.4456 9C22.3542 8.93864 21.6347 8.38528 21.2874 7.33984C21.2542 5.06 21.2431 2.78006 21.2542 0.5Z" fill="#797E92"/>
<path fill-rule="evenodd" clip-rule="evenodd" d="M29.6907 8.93359C29.7569 11.0472 29.7791 13.1722 29.7571 15.3086C27.6321 13.2279 25.5292 11.125 23.4485 9C25.5405 9.02205 27.6213 8.99987 29.6907 8.93359Z" fill="#A0A4B6"/>
<path opacity="0.999" fill-rule="evenodd" clip-rule="evenodd" d="M4.25 16.4417C11.0677 16.4306 17.8855 16.4417 24.7031 16.4749C25.0624 16.5906 25.317 16.823 25.4668 17.1721C25.5 20.9129 25.5111 24.6539 25.5 28.3948C25.3572 28.7698 25.0916 29.0244 24.7031 29.1585C17.8855 29.1917 11.0677 29.2028 4.25 29.1917C3.05448 29.2028 1.85917 29.1917 0.664064 29.1585C0.365236 29.0367 0.154947 28.8264 0.0332048 28.5276C-0.0110683 24.7203 -0.0110683 20.913 0.0332048 17.1057C0.154947 16.8069 0.365236 16.5966 0.664064 16.4749C1.85917 16.4417 3.05448 16.4306 4.25 16.4417Z" fill="#749715"/>
<path fill-rule="evenodd" clip-rule="evenodd" d="M12.5939 19.8906C14.9081 19.98 16.0481 21.1753 16.0138 23.4766C15.7516 24.8455 14.9437 25.6977 13.59 26.0332C10.9534 26.2079 9.70281 24.9793 9.83802 22.3477C10.2489 20.9514 11.1675 20.1324 12.5939 19.8906Z" fill="white"/>
<path fill-rule="evenodd" clip-rule="evenodd" d="M19.5923 19.9609C20.3272 19.9289 21.0134 20.0949 21.6509 20.459C22.0193 20.654 22.1853 20.9528 22.1489 21.3555C21.9771 21.6588 21.7225 21.7584 21.3852 21.6543C20.8519 21.1198 20.21 20.9427 19.4595 21.123C18.5665 21.4366 18.1238 22.0675 18.1313 23.0156C18.2502 24.6478 19.1135 25.2787 20.7212 24.9082C21.004 24.7798 21.2696 24.6248 21.518 24.4433C22.0274 24.3553 22.2599 24.5656 22.2153 25.0742C21.9983 25.4993 21.6552 25.7759 21.186 25.9043C18.3412 26.424 16.9798 25.2398 17.102 22.3516C17.4294 21.0168 18.2595 20.2199 19.5923 19.9609Z" fill="#ECEFF2"/>
<path fill-rule="evenodd" clip-rule="evenodd" d="M3.78516 20.1604C4.73722 20.1493 5.68909 20.1604 6.64063 20.1936C8.29846 20.7256 9.01784 21.8656 8.79883 23.6135C8.54343 24.9314 7.75758 25.7173 6.44141 25.971C5.55601 26.0152 4.67055 26.0152 3.78516 25.971C3.66656 25.9188 3.56695 25.8414 3.48633 25.7385C3.44206 23.9677 3.44206 22.1969 3.48633 20.426C3.57909 20.3218 3.6787 20.2332 3.78516 20.1604Z" fill="white"/>
<path fill-rule="evenodd" clip-rule="evenodd" d="M12.5158 21.0363C13.7309 20.918 14.5388 21.4271 14.9396 22.5636C15.0409 24.3658 14.1887 25.1737 12.383 24.9874C11.2466 24.5415 10.7928 23.7114 11.0216 22.4972C11.2494 21.7271 11.7474 21.2401 12.5158 21.0363Z" fill="#749715"/>
<path fill-rule="evenodd" clip-rule="evenodd" d="M4.58911 21.1565C5.18717 21.1455 5.78482 21.1565 6.38208 21.1897C7.25579 21.466 7.69845 22.0637 7.71021 22.9826C7.75915 23.9708 7.31648 24.6127 6.38208 24.9084C5.78482 24.9416 5.18717 24.9527 4.58911 24.9416C4.58911 23.6799 4.58911 22.4182 4.58911 21.1565Z" fill="#749715"/>
<path fill-rule="evenodd" clip-rule="evenodd" d="M25.5 28.3906C25.5246 28.8173 25.4914 29.2378 25.4004 29.6523C25.2467 29.939 25.0142 30.1271 24.7031 30.2168C17.8855 30.25 11.0677 30.2611 4.25 30.25C4.25 29.8959 4.25 29.5416 4.25 29.1875C11.0677 29.1986 17.8855 29.1875 24.7031 29.1543C25.0916 29.0202 25.3572 28.7657 25.5 28.3906Z" fill="#A0A4B6"/>
</svg>
