<svg width="121" height="120" viewBox="0 0 121 120" fill="none" xmlns="http://www.w3.org/2000/svg">
<path fill-rule="evenodd" clip-rule="evenodd" d="M60.5 120C93.6371 120 120.5 93.1371 120.5 60C120.5 26.8629 93.6371 0 60.5 0C27.3629 0 0.5 26.8629 0.5 60C0.5 93.1371 27.3629 120 60.5 120ZM60.5 108C33.9903 108 12.5 86.5097 12.5 60C12.5 33.4903 33.9903 12 60.5 12C87.0097 12 108.5 33.4903 108.5 60C108.5 86.5097 87.0097 108 60.5 108ZM89.8294 43.3445C89.7881 41.8868 89.1697 40.5051 88.11 39.5033C87.0499 38.502 85.6355 37.9627 84.1778 38.0039C82.7201 38.0452 81.3385 38.6636 80.3367 39.7233L53.0567 68.6093L40.5533 56.1133C39.5107 55.1418 38.1317 54.6129 36.7068 54.6381C35.282 54.6632 33.9225 55.2404 32.9148 56.2481C31.9071 57.2558 31.3299 58.6153 31.3047 60.0402C31.2796 61.465 31.8085 62.8441 32.78 63.8867L49.28 80.3867C49.7998 80.9062 50.4185 81.3164 51.0995 81.5928C51.7805 81.8692 52.51 82.0064 53.2449 81.9961C53.9798 81.9859 54.7052 81.8284 55.3782 81.5331C56.0512 81.2378 56.6582 80.8105 57.1633 80.2767L88.33 47.2767C89.3313 46.2165 89.8707 44.8021 89.8294 43.3445Z" fill="#0C5C2B"/>
</svg>
