<svg width="60" height="60" viewBox="0 0 60 60" fill="none" xmlns="http://www.w3.org/2000/svg">
<rect width="60" height="60" rx="30" fill="#9FC33C"/>
<path d="M27.7777 33.6457C27.7777 34.6222 28.6364 35.4157 29.6939 35.4157C30.7514 35.4157 31.6109 34.6222 31.6109 33.6382V32.361C31.6109 32.2777 31.6657 32.2042 31.7459 32.1795C34.2569 31.386 35.9999 29.1877 35.9999 26.67V25.7295C35.9999 22.5502 33.2324 19.8997 29.8297 19.8337C28.1197 19.7962 26.5057 20.3917 25.2809 21.4927C24.0644 22.5945 23.3887 24.078 23.3887 25.6567C23.3887 26.64 24.2549 27.4335 25.3132 27.4335C26.3707 27.4335 27.2294 26.64 27.2294 25.6635C27.2294 25.047 27.4919 24.4665 27.9689 24.0337C28.4562 23.5943 29.0943 23.36 29.7502 23.3797C31.0852 23.4097 32.1674 24.4672 32.1674 25.737V26.67C32.1674 27.771 31.3244 28.7182 30.1552 28.917C28.7797 29.1517 27.7777 30.2602 27.7777 31.5525V33.6457ZM29.6249 40.4985C30.1222 40.4985 30.5991 40.3009 30.9507 39.9493C31.3024 39.5976 31.4999 39.1207 31.4999 38.6235C31.4999 38.1262 31.3024 37.6493 30.9507 37.2976C30.5991 36.946 30.1222 36.7485 29.6249 36.7485C29.1276 36.7485 28.6507 36.946 28.2991 37.2976C27.9475 37.6493 27.7499 38.1262 27.7499 38.6235C27.7499 39.1207 27.9475 39.5976 28.2991 39.9493C28.6507 40.3009 29.1276 40.4985 29.6249 40.4985Z" fill="white"/>
</svg>
