<svg width="200" height="42" viewBox="0 0 224 42" fill="none" xmlns="http://www.w3.org/2000/svg">
<g clip-path="url(#clip0_540_17867)">
<path d="M140.857 3.82608C141.904 3.82608 142.752 2.98139 142.752 1.93941C142.752 0.897436 141.904 0.0527344 140.857 0.0527344C139.81 0.0527344 138.962 0.897436 138.962 1.93941C138.962 2.98139 139.81 3.82608 140.857 3.82608Z" fill="#00293F"/>
<path d="M142.709 27.2959C142.699 29.3693 141.272 31.0526 139.133 31.1359C139.016 31.1404 138.958 31.0848 138.958 30.9692C138.954 24.2826 138.953 17.597 138.955 10.9126C138.955 9.47259 139.119 8.44592 139.447 7.83259C140.043 6.71926 141.086 6.05812 142.575 5.84922C142.6 5.84589 142.625 5.84789 142.649 5.85509C142.673 5.86229 142.695 5.87452 142.713 5.89096C142.732 5.90742 142.747 5.92766 142.757 5.95039C142.767 5.97309 142.773 5.99772 142.772 6.02259C142.768 13.107 142.747 20.1981 142.709 27.2959Z" fill="#00293F"/>
<path d="M56.9747 9.75975C56.5282 10.0042 56.3117 10.3908 56.3251 10.9197C56.3697 12.5575 56.3976 14.1519 56.4088 15.703C56.4106 15.9435 56.5076 16.1736 56.6787 16.3434C56.8499 16.5131 57.0814 16.6088 57.323 16.6097C62.5399 16.6186 67.8193 16.6186 73.1612 16.6097C75.2707 16.603 76.888 16.6697 77.6749 18.6164C77.8602 19.0741 77.9528 19.7875 77.9528 20.7564C77.9506 22.9986 77.945 25.2397 77.9361 27.4797C77.9316 28.4975 77.7765 29.2575 77.4707 29.7597C76.8992 30.6975 75.9917 31.1664 74.7484 31.1664C68.7948 31.1619 62.8412 31.1597 56.8877 31.1597C55.6532 31.1597 54.7547 31.003 54.1921 30.6897C53.1072 30.083 52.5659 29.0464 52.5681 27.5797C52.5681 27.4286 52.644 27.353 52.7958 27.353H73.1444C73.4127 27.353 73.6699 27.247 73.8595 27.0582C74.0491 26.8694 74.1557 26.6134 74.1557 26.3464L74.1523 21.583C74.1523 20.803 73.7606 20.413 72.977 20.413C67.7155 20.413 62.4238 20.4142 57.102 20.4164C55.7112 20.4164 54.7234 20.2586 54.1386 19.943C53.0827 19.3697 52.557 18.3886 52.5614 16.9997C52.5704 14.733 52.5759 12.4653 52.5782 10.1964C52.5782 8.91418 52.7378 7.98751 53.057 7.41638C53.6285 6.38751 54.5806 5.87305 55.9133 5.87305C61.9159 5.87528 67.9186 5.87861 73.9213 5.88305C74.9928 5.88305 75.7942 6.03195 76.3255 6.32971C77.4394 6.95415 77.9819 8.00528 77.9528 9.48305C77.9506 9.60528 77.8881 9.66638 77.7653 9.66638H57.343C57.2155 9.66641 57.0889 9.69851 56.9747 9.75975Z" fill="#00293F"/>
<path d="M85.6241 15.5358C85.7045 16.7925 86.4479 16.6125 87.3955 16.6125C92.6325 16.608 97.8718 16.6091 103.113 16.6158C103.251 16.6158 103.321 16.6847 103.321 16.8224L103.327 20.2225C103.327 20.3491 103.263 20.4125 103.133 20.4125H86.4747C86.2312 20.4125 85.9978 20.5087 85.8257 20.68C85.6539 20.8513 85.5572 21.0836 85.5572 21.3258V26.2225C85.5572 26.9758 85.9356 27.3525 86.6923 27.3525H106.977C107.091 27.3525 107.148 27.4091 107.148 27.5225C107.15 29.0269 106.618 30.0769 105.551 30.6725C104.964 31.0014 103.933 31.1647 102.457 31.1625C96.9721 31.1602 91.4863 31.158 85.9992 31.1558C82.8449 31.1558 81.7634 29.9858 81.7634 26.9591C81.7678 21.1791 81.7712 15.4002 81.7734 9.62247C81.7734 8.58024 81.9263 7.80914 82.2321 7.30914C82.8214 6.34914 83.7869 5.86914 85.1285 5.86914C91.1401 5.87134 97.1529 5.87581 103.167 5.88247C105.564 5.88581 107.185 6.92581 107.145 9.49914C107.142 9.61024 107.085 9.66581 106.974 9.66581H86.5416C86.2992 9.66541 86.0661 9.75744 85.8897 9.92297C85.7136 10.0885 85.6077 10.315 85.594 10.5558C85.5047 12.1669 85.5148 13.8269 85.6241 15.5358Z" fill="#00293F"/>
<path d="M115.61 16.613H132.355C132.458 16.613 132.509 16.663 132.509 16.763V20.2497C132.509 20.3586 132.453 20.413 132.342 20.413H115.677C115.431 20.413 115.195 20.5103 115.021 20.6835C114.847 20.8566 114.749 21.0915 114.749 21.3364V26.4197C114.749 26.6672 114.848 26.9046 115.024 27.0797C115.199 27.2547 115.438 27.353 115.687 27.353H136.116C136.252 27.353 136.32 27.4208 136.32 27.5564C136.318 29.0297 135.784 30.0708 134.719 30.6797C134.166 30.9975 133.268 31.1564 132.027 31.1564C126.569 31.1586 121.111 31.1619 115.653 31.1664C114.242 31.1664 113.277 31.0442 112.757 30.7997C111.24 30.093 110.925 28.7731 110.925 27.0931C110.928 21.0908 110.926 15.0875 110.922 9.08305C110.918 6.84971 112.472 5.89305 114.578 5.88971C120.284 5.87861 125.989 5.87305 131.692 5.87305C133.137 5.87528 134.153 6.04195 134.743 6.37305C135.801 6.97085 136.326 8.00415 136.317 9.47305C136.314 9.60195 136.249 9.66638 136.119 9.66638H115.76C115.492 9.66638 115.235 9.77245 115.045 9.96121C114.856 10.15 114.749 10.4061 114.749 10.673V15.7597C114.75 15.9863 114.841 16.2034 115.002 16.3633C115.164 16.5233 115.382 16.6131 115.61 16.613Z" fill="#00293F"/>
<path d="M171.937 29.3703C171.937 29.8441 171.748 30.2986 171.412 30.6337C171.075 30.9687 170.619 31.1569 170.143 31.1569H148.364C147.888 31.1569 147.432 30.9687 147.095 30.6337C146.759 30.2986 146.57 29.8441 146.57 29.3703V7.66362C146.57 7.18975 146.759 6.73532 147.095 6.40025C147.432 6.06519 147.888 5.87695 148.364 5.87695H170.143C170.619 5.87695 171.075 6.06519 171.412 6.40025C171.748 6.73532 171.937 7.18975 171.937 7.66362V29.3703ZM168.124 18.517C168.124 16.1751 167.189 13.9291 165.526 12.2732C163.862 10.6173 161.606 9.68695 159.254 9.68695C156.901 9.68695 154.645 10.6173 152.981 12.2732C151.318 13.9291 150.383 16.1751 150.383 18.517C150.383 19.6765 150.613 20.8247 151.058 21.896C151.504 22.9673 152.158 23.9408 152.981 24.7607C153.805 25.5807 154.783 26.2311 155.859 26.6748C156.935 27.1186 158.089 27.347 159.254 27.347C160.418 27.347 161.572 27.1186 162.648 26.6748C163.724 26.2311 164.702 25.5807 165.526 24.7607C166.349 23.9408 167.003 22.9673 167.449 21.896C167.894 20.8247 168.124 19.6765 168.124 18.517Z" fill="#00293F"/>
<path d="M136.819 38.9334L138.051 35.7367C138.071 35.6837 138.107 35.6377 138.153 35.605C138.2 35.5727 138.256 35.555 138.313 35.5547C138.37 35.5544 138.425 35.5714 138.473 35.603C138.52 35.635 138.556 35.6804 138.577 35.7334L139.829 38.9367C139.909 39.1434 139.976 39.14 140.03 38.9267L140.817 35.8267C140.848 35.7044 140.927 35.6434 141.055 35.6434L141.778 35.64C141.804 35.64 141.83 35.646 141.854 35.658C141.878 35.6697 141.898 35.687 141.914 35.7084C141.93 35.7297 141.941 35.7544 141.946 35.7807C141.951 35.807 141.949 35.8344 141.942 35.86L140.331 41.5734C140.317 41.6247 140.287 41.6704 140.246 41.7037C140.204 41.7374 140.153 41.7567 140.1 41.7597C140.046 41.7627 139.993 41.749 139.949 41.7204C139.904 41.6917 139.869 41.6497 139.849 41.6L138.423 38.0034C138.342 37.8034 138.263 37.8034 138.185 38.0034L136.775 41.5967C136.756 41.6464 136.721 41.6884 136.676 41.7174C136.632 41.7464 136.579 41.7607 136.526 41.758C136.472 41.7554 136.421 41.736 136.379 41.703C136.338 41.67 136.307 41.6247 136.293 41.5734L134.679 35.8534C134.639 35.7157 134.692 35.6457 134.837 35.6434L135.513 35.6367C135.671 35.6367 135.771 35.7134 135.811 35.8667L136.611 38.9234C136.669 39.139 136.738 39.1424 136.819 38.9334Z" fill="#00293F"/>
<path d="M53.5057 37.0028C53.4053 37.2671 53.5091 37.5148 53.8171 37.7461C54.3763 38.1661 55.4311 38.3361 55.9769 39.1095C56.7805 40.2561 55.92 41.5361 54.6509 41.7295C53.8406 41.8538 53.0816 41.6315 52.3739 41.0628C52.2869 40.9915 52.2735 40.9094 52.3338 40.8161L52.7054 40.2428C52.7184 40.2221 52.7356 40.2044 52.756 40.1911C52.7764 40.1778 52.7994 40.1688 52.8235 40.1651C52.8477 40.1611 52.8723 40.1628 52.8958 40.1691C52.9193 40.1758 52.9412 40.1871 52.9599 40.2028C53.422 40.5895 53.9421 40.7671 54.5203 40.7361C54.6418 40.7298 54.7586 40.6878 54.8562 40.6154C54.9537 40.5428 55.0275 40.4434 55.0684 40.3294C55.1092 40.2154 55.1152 40.0918 55.0856 39.9745C55.056 39.8568 54.9921 39.7508 54.902 39.6695C54.556 39.3518 54.1386 39.0971 53.6497 38.9061C50.6495 37.7261 53.1575 34.1561 55.9903 36.1428C56.0952 36.2161 56.1119 36.3071 56.0405 36.4161L55.6789 36.9761C55.663 37.0005 55.6421 37.0211 55.6175 37.0368C55.5929 37.0524 55.5653 37.0625 55.5364 37.0668C55.5076 37.0708 55.4781 37.0688 55.4501 37.0604C55.4221 37.0524 55.3962 37.0384 55.3742 37.0194C54.9355 36.6361 53.8104 36.1895 53.5057 37.0028Z" fill="#00293F"/>
<path d="M83.7792 36.8098C83.7227 36.8761 83.6816 36.9541 83.6585 37.0378C83.6355 37.1218 83.6311 37.2098 83.6458 37.2955C83.6605 37.3811 83.6938 37.4628 83.7434 37.5341C83.7931 37.6058 83.8579 37.6658 83.9332 37.7098C84.9243 38.2898 86.6354 38.7031 86.4345 40.2398C86.1934 42.0731 83.7758 42.0465 82.5972 41.0898C82.4766 40.9941 82.4588 40.8821 82.5436 40.7531L82.8449 40.2998C82.9387 40.1598 83.0514 40.1408 83.1831 40.2431C83.5738 40.5408 84.0091 40.7131 84.489 40.7598C84.5879 40.7698 84.6879 40.7575 84.7812 40.7231C84.8746 40.6891 84.9589 40.6341 85.0279 40.5625C85.097 40.4908 85.1488 40.4045 85.1796 40.3098C85.2104 40.2155 85.2192 40.1151 85.2056 40.0165C85.0951 39.2565 83.7423 38.9965 83.1798 38.5165C82.1284 37.6198 82.3293 36.0831 83.7055 35.6465C84.5225 35.3865 85.3407 35.5521 86.1599 36.1431C86.2694 36.2231 86.2862 36.3198 86.2101 36.4331L85.892 36.9165C85.8596 36.9641 85.811 36.9985 85.7554 37.0125C85.6995 37.0265 85.6409 37.0198 85.5907 36.9931C84.9913 36.6765 84.2446 36.2598 83.7792 36.8098Z" fill="#00293F"/>
<path d="M94.8793 39.0826L94.886 35.8593C94.886 35.7146 94.9586 35.6413 95.1036 35.6393H95.7867C95.9341 35.6369 96.0077 35.7103 96.0077 35.8593V41.5793C96.0077 41.6249 95.9937 41.6693 95.9679 41.7069C95.9421 41.7446 95.9053 41.7736 95.8627 41.7899C95.8202 41.8066 95.7733 41.8099 95.7288 41.7996C95.6843 41.7896 95.6437 41.7659 95.6126 41.7326L92.1938 37.9893C92.0666 37.8513 92.003 37.8759 92.003 38.0626V41.4526C92.003 41.5946 91.9316 41.6659 91.7887 41.6659H91.1123C90.9716 41.6659 90.9013 41.5959 90.9013 41.4559V35.7526C90.901 35.7043 90.9157 35.6569 90.9428 35.6169C90.9703 35.5766 91.0091 35.5459 91.0543 35.5283C91.0995 35.5106 91.1491 35.5069 91.1966 35.5179C91.2439 35.5286 91.2871 35.5536 91.3199 35.5893L94.6851 39.1559C94.8147 39.2959 94.8793 39.2713 94.8793 39.0826Z" fill="#00293F"/>
<path d="M105.239 40.6533C105.993 40.2033 105.44 39.37 104.844 39.1866C103.692 38.8366 102.474 37.92 103.05 36.58C103.575 35.3466 105.457 35.3166 106.395 35.99C106.503 36.0673 106.578 36.182 106.607 36.3116C106.635 36.4413 106.614 36.577 106.548 36.692C106.482 36.8073 106.375 36.894 106.248 36.9353C106.122 36.977 105.984 36.9703 105.862 36.9166C105.35 36.6966 104.479 36.18 104.121 36.9366C104.085 37.0136 104.064 37.0973 104.061 37.1823C104.057 37.2676 104.071 37.3526 104.101 37.4326C104.131 37.5126 104.177 37.586 104.235 37.6483C104.294 37.711 104.364 37.7613 104.443 37.7966C105.45 38.25 107.182 38.9033 106.803 40.3833C106.381 42.01 104.108 42.08 103.08 41.1733C102.983 41.0886 102.921 40.9716 102.906 40.8443C102.89 40.7173 102.922 40.589 102.996 40.484C103.07 40.379 103.18 40.305 103.306 40.2756C103.431 40.2466 103.563 40.265 103.676 40.3266C104.071 40.54 104.747 40.9433 105.239 40.6533Z" fill="#00293F"/>
<path d="M109.077 37.1291C109.061 37.2931 109.101 37.4574 109.191 37.5961C109.281 37.7348 109.415 37.8391 109.572 37.8924C110.466 38.1958 111.461 38.6891 111.792 39.6091C112.083 40.4138 111.81 41.0404 110.975 41.4891C109.982 42.0224 108.975 41.8724 107.955 41.0391C107.87 40.9724 107.857 40.8938 107.915 40.8024L108.25 40.2858C108.319 40.1791 108.408 40.1591 108.518 40.2258C109.13 40.5958 110.376 41.2258 110.557 40.1824C110.59 39.9941 110.555 39.7994 110.458 39.6341C110.36 39.4684 110.207 39.3428 110.024 39.2791C105.728 37.7791 108.926 34.1558 111.397 35.9958C111.5 36.0744 111.571 36.1878 111.596 36.3144C111.622 36.4411 111.6 36.5724 111.536 36.6844C111.471 36.7964 111.367 36.8814 111.245 36.9234C111.122 36.9651 110.988 36.9614 110.868 36.9124C110.373 36.7024 109.184 36.0958 109.077 37.1291Z" fill="#00293F"/>
<path d="M118.988 39.6826L118.791 39.6626C118.725 39.6589 118.661 39.6426 118.602 39.6146C118.543 39.5863 118.49 39.5469 118.446 39.4983C118.357 39.3999 118.312 39.2709 118.319 39.1393C118.326 39.0076 118.385 38.8839 118.484 38.7959C118.582 38.7076 118.712 38.6623 118.844 38.6693L120.174 38.6793C120.31 38.6793 120.378 38.7479 120.378 38.8859L120.381 40.9959C120.381 41.0476 120.366 41.0986 120.338 41.1423C120.309 41.1859 120.268 41.2209 120.22 41.2426C118.194 42.1493 116.667 41.8526 115.64 40.3526C113.584 37.3493 117.334 34.1193 120.224 36.3226C120.353 36.4226 120.361 36.5303 120.247 36.6459L119.775 37.1293C119.739 37.1666 119.689 37.1889 119.637 37.1919C119.584 37.1949 119.532 37.1786 119.491 37.1459C117.381 35.4259 114.977 38.6293 117.113 40.2493C117.653 40.6579 118.308 40.7379 119.075 40.4893C119.167 40.4609 119.246 40.4016 119.299 40.3216C119.353 40.2413 119.376 40.1456 119.365 40.0503C119.355 39.9549 119.312 39.8659 119.243 39.7989C119.174 39.7319 119.084 39.6906 118.988 39.6826Z" fill="#00293F"/>
<path d="M133.805 38.6531C133.805 39.4717 133.478 40.2567 132.897 40.8357C132.315 41.4147 131.527 41.7397 130.704 41.7397C129.882 41.7397 129.094 41.4147 128.512 40.8357C127.931 40.2567 127.604 39.4717 127.604 38.6531C127.604 37.8344 127.931 37.0494 128.512 36.4704C129.094 35.8917 129.882 35.5664 130.704 35.5664C131.527 35.5664 132.315 35.8917 132.897 36.4704C133.478 37.0494 133.805 37.8344 133.805 38.6531ZM132.68 38.6531C132.68 38.3954 132.629 38.1401 132.53 37.9017C132.431 37.6637 132.286 37.4471 132.102 37.2647C131.919 37.0824 131.702 36.9381 131.463 36.8394C131.223 36.7407 130.967 36.6897 130.708 36.6897C130.185 36.6897 129.683 36.8967 129.313 37.2647C128.944 37.6331 128.736 38.1324 128.736 38.6531C128.736 39.1737 128.944 39.6731 129.313 40.0414C129.683 40.4097 130.185 40.6164 130.708 40.6164C130.967 40.6164 131.223 40.5657 131.463 40.4671C131.702 40.3684 131.919 40.2237 132.102 40.0414C132.286 39.8591 132.431 39.6427 132.53 39.4044C132.629 39.1664 132.68 38.9111 132.68 38.6531Z" fill="#00293F"/>
<path d="M58.8364 36.8026L58.8298 37.9459C58.8298 37.9822 58.8442 38.0169 58.87 38.0426C58.8957 38.0682 58.9306 38.0826 58.9671 38.0826H60.9795C61.0153 38.0826 61.0497 38.0966 61.0754 38.1216C61.101 38.1462 61.1159 38.1802 61.1167 38.2159L61.1235 38.9926C61.1235 39.0282 61.1095 39.0626 61.0844 39.0882C61.0594 39.1136 61.0253 39.1286 60.9895 39.1292L58.9771 39.1326C58.9407 39.1326 58.9058 39.1469 58.88 39.1726C58.8543 39.1982 58.8398 39.2329 58.8398 39.2692L58.8298 40.4926C58.8298 40.5289 58.8442 40.5636 58.87 40.5892C58.8957 40.6149 58.9306 40.6292 58.9671 40.6292L61.4014 40.6326C61.4378 40.6326 61.4727 40.6469 61.4985 40.6726C61.5242 40.6982 61.5386 40.7329 61.5386 40.7692L61.5286 41.5292C61.5286 41.5656 61.5142 41.6002 61.4884 41.6259C61.4627 41.6516 61.4277 41.6659 61.3913 41.6659H57.8319C57.7955 41.6659 57.7606 41.6516 57.7348 41.6259C57.7091 41.6002 57.6946 41.5656 57.6946 41.5292V35.7792C57.6946 35.7429 57.7091 35.7082 57.7348 35.6826C57.7606 35.6569 57.7955 35.6426 57.8319 35.6426H61.4014C61.4378 35.6426 61.4727 35.6569 61.4985 35.6826C61.5242 35.7082 61.5386 35.7429 61.5386 35.7792L61.5286 36.5292C61.5286 36.5656 61.5142 36.6002 61.4884 36.6259C61.4627 36.6516 61.4277 36.6659 61.3913 36.6659H58.9738C58.9373 36.6659 58.9024 36.6802 58.8767 36.7059C58.8509 36.7316 58.8364 36.7662 58.8364 36.8026Z" fill="#00293F"/>
<path d="M64.3815 38.084H66.3537C66.3984 38.084 66.4413 38.1013 66.4733 38.1326C66.5052 38.1636 66.5236 38.206 66.5245 38.2506L66.5345 38.954C66.535 38.9766 66.5309 38.999 66.5225 39.02C66.5141 39.041 66.5016 39.0603 66.4857 39.0763C66.4698 39.0923 66.4509 39.1053 66.4299 39.114C66.409 39.1226 66.3865 39.1273 66.3638 39.1273L64.3848 39.134C64.3395 39.134 64.2961 39.152 64.2641 39.1836C64.232 39.2156 64.214 39.259 64.214 39.304L64.2073 40.4606C64.2073 40.5056 64.2253 40.549 64.2574 40.581C64.2894 40.6126 64.3328 40.6306 64.3781 40.6306L66.779 40.6373C66.8017 40.6373 66.8242 40.6416 66.8451 40.6506C66.8661 40.6593 66.885 40.672 66.9009 40.6883C66.9168 40.7043 66.9293 40.7236 66.9377 40.7446C66.9461 40.7656 66.9502 40.788 66.9497 40.8106L66.9397 41.5006C66.9388 41.545 66.9204 41.5876 66.8885 41.6186C66.8566 41.65 66.8136 41.6673 66.7689 41.6673H63.2731C63.2278 41.6673 63.1844 41.6493 63.1524 41.6176C63.1203 41.5856 63.1024 41.5423 63.1024 41.4973V35.814C63.1024 35.769 63.1203 35.7256 63.1524 35.6936C63.1844 35.662 63.2278 35.644 63.2731 35.644L66.779 35.6406C66.8017 35.6406 66.8242 35.645 66.8451 35.654C66.8661 35.6626 66.885 35.6753 66.9009 35.6916C66.9168 35.7076 66.9293 35.727 66.9377 35.748C66.9461 35.769 66.9502 35.7913 66.9497 35.814L66.943 36.5006C66.9422 36.545 66.9238 36.5876 66.8918 36.6186C66.8599 36.65 66.817 36.6673 66.7723 36.6673H64.3815C64.3362 36.6673 64.2927 36.6853 64.2607 36.717C64.2287 36.749 64.2107 36.7923 64.2107 36.8373V37.914C64.2107 37.959 64.2287 38.0023 64.2607 38.0343C64.2927 38.066 64.3362 38.084 64.3815 38.084Z" fill="#00293F"/>
<path d="M73.9816 38.6573C74.3198 38.9239 74.6814 39.2039 74.7785 39.6406C75.2975 41.9406 72.1566 41.7639 70.8608 41.6373C70.767 41.6283 70.7202 41.5773 70.7202 41.4839V35.8406C70.7202 35.7316 70.7749 35.6739 70.8842 35.6673C71.9 35.6073 72.6857 35.6083 73.2415 35.6706C74.6412 35.8273 75.2037 37.5206 73.9849 38.4273C73.8845 38.5026 73.8833 38.5793 73.9816 38.6573ZM71.8118 36.8206L71.8184 38.0139C71.8184 38.0553 71.835 38.0953 71.8645 38.1246C71.8941 38.1539 71.9341 38.1706 71.9758 38.1706L72.679 38.1673C72.8965 38.1663 73.1046 38.0916 73.2578 37.9596C73.411 37.8276 73.4967 37.6493 73.496 37.4639V37.3573C73.4957 37.2653 73.4741 37.1743 73.4325 37.0893C73.391 37.0046 73.3301 36.9276 73.2536 36.8629C73.1772 36.7983 73.0864 36.7469 72.9867 36.7123C72.8869 36.6776 72.7801 36.6599 72.6723 36.6606L71.9691 36.6639C71.9274 36.6639 71.8874 36.6803 71.8579 36.7096C71.8283 36.7393 71.8118 36.7789 71.8118 36.8206ZM71.8151 39.3106V40.4506C71.8151 40.5069 71.8377 40.5613 71.8779 40.6013C71.9181 40.6413 71.9726 40.6639 72.0294 40.6639H72.5986C72.879 40.6636 73.148 40.5869 73.3464 40.4506C73.5447 40.3143 73.6564 40.1296 73.6568 39.9373V39.8239C73.6569 39.7283 73.6297 39.6336 73.5766 39.5456C73.5235 39.4573 73.4456 39.3773 73.3473 39.3096C73.249 39.2423 73.1324 39.1886 73.0039 39.1523C72.8754 39.1156 72.7377 39.0969 72.5986 39.0973H72.0294C71.9726 39.0973 71.9181 39.1196 71.8779 39.1596C71.8377 39.1996 71.8151 39.2539 71.8151 39.3106Z" fill="#00293F"/>
<path d="M80.3269 41.1226C79.78 41.6983 79.0612 41.8936 78.1705 41.7093C75.6257 41.186 76.2552 37.726 76.2619 35.826C76.2619 35.7083 76.321 35.6493 76.4393 35.6493L77.2464 35.6426C77.3669 35.6403 77.4271 35.7003 77.4271 35.8226C77.4204 37.096 77.426 38.366 77.4439 39.6326C77.4606 40.696 79.2387 40.976 79.751 39.9926C80.1729 39.196 79.9318 36.806 79.9419 35.8226C79.9441 35.707 80.0032 35.6483 80.1193 35.646L80.846 35.6426C80.9665 35.6426 81.0323 35.7016 81.0435 35.8193C81.2042 37.3093 81.4286 39.966 80.3269 41.1226Z" fill="#00293F"/>
<path d="M88.8621 35.6406H88.025C87.9473 35.6406 87.8843 35.7033 87.8843 35.7806V41.5273C87.8843 41.6046 87.9473 41.6673 88.025 41.6673H88.8621C88.9398 41.6673 89.0027 41.6046 89.0027 41.5273V35.7806C89.0027 35.7033 88.9398 35.6406 88.8621 35.6406Z" fill="#00293F"/>
<path d="M99.0214 36.804L99.018 37.9473C99.018 37.9836 99.0324 38.0183 99.0582 38.044C99.084 38.0696 99.1188 38.084 99.1553 38.084H101.164C101.2 38.084 101.235 38.098 101.26 38.1226C101.286 38.1476 101.301 38.1816 101.302 38.2173L101.312 38.9906C101.312 39.009 101.309 39.027 101.302 39.044C101.296 39.061 101.286 39.0763 101.273 39.0893C101.26 39.1023 101.245 39.113 101.228 39.12C101.211 39.127 101.193 39.1306 101.174 39.1306H99.162C99.1255 39.1306 99.0907 39.145 99.0649 39.1706C99.0391 39.1963 99.0247 39.231 99.0247 39.2673L99.0147 40.4906C99.0147 40.527 99.0291 40.5616 99.0548 40.5873C99.0806 40.613 99.1154 40.6273 99.1519 40.6273L101.59 40.6373C101.625 40.6383 101.66 40.653 101.685 40.6786C101.709 40.704 101.724 40.7383 101.724 40.774L101.717 41.534C101.716 41.5696 101.701 41.6036 101.676 41.6283C101.65 41.6533 101.615 41.6673 101.58 41.6673H98.0202C97.9837 41.6673 97.9488 41.653 97.9231 41.6273C97.8973 41.6016 97.8829 41.567 97.8829 41.5306L97.8862 35.7806C97.8862 35.7443 97.9006 35.7096 97.9264 35.684C97.9522 35.6583 97.987 35.644 98.0235 35.644L101.586 35.6406C101.605 35.6406 101.623 35.6443 101.64 35.6513C101.657 35.6583 101.672 35.6686 101.685 35.682C101.697 35.695 101.707 35.7103 101.714 35.7273C101.721 35.7443 101.724 35.7623 101.724 35.7806L101.717 36.534C101.716 36.5696 101.701 36.6036 101.676 36.6283C101.65 36.6533 101.615 36.6673 101.58 36.6673H99.1586C99.1221 36.6673 99.0873 36.6816 99.0615 36.7073C99.0358 36.733 99.0214 36.7676 99.0214 36.804Z" fill="#00293F"/>
<path d="M125.3 39.4064L126.345 41.3331C126.364 41.3677 126.374 41.4067 126.373 41.4461C126.372 41.4854 126.361 41.5241 126.34 41.5581C126.319 41.5921 126.29 41.6204 126.255 41.6401C126.22 41.6594 126.181 41.6697 126.141 41.6697L125.404 41.6631C125.29 41.6611 125.207 41.6097 125.156 41.5097L124.131 39.4831C124.075 39.3734 123.984 39.2857 123.872 39.2341C123.76 39.1821 123.634 39.1694 123.513 39.1974C123.393 39.2254 123.286 39.2927 123.208 39.3887C123.131 39.4844 123.088 39.6034 123.087 39.7264L123.077 41.4897C123.074 41.6097 123.013 41.6687 122.893 41.6664L122.169 41.6631C122.114 41.6631 122.061 41.6414 122.023 41.6027C121.983 41.5637 121.962 41.5114 121.962 41.4564V35.8397C121.962 35.7421 122.01 35.6897 122.106 35.6831C123.582 35.5831 125.444 35.3697 126.147 36.4297C126.81 37.4297 126.442 38.6031 125.38 39.1497C125.264 39.2077 125.237 39.2931 125.3 39.4064ZM123.08 36.8397V38.2264C123.08 38.2724 123.098 38.3164 123.131 38.3491C123.164 38.3814 123.208 38.3997 123.254 38.3997H124.363C124.628 38.3997 124.883 38.3147 125.07 38.1634C125.258 38.0124 125.364 37.8071 125.364 37.5931V37.4731C125.364 37.2591 125.258 37.0541 125.07 36.9027C124.883 36.7514 124.628 36.6664 124.363 36.6664H123.254C123.208 36.6664 123.164 36.6847 123.131 36.7174C123.098 36.7497 123.08 36.7937 123.08 36.8397Z" fill="#00293F"/>
</g>
<defs>
<clipPath id="clip0_540_17867">
<rect width="119.875" height="42" fill="white" transform="translate(52.0625)"/>
</clipPath>
</defs>
</svg>
