<svg width="124" height="122" viewBox="0 0 124 122" fill="none" xmlns="http://www.w3.org/2000/svg">
<path d="M87.1077 20.2337C87.1077 20.2337 78.7671 41.5176 111.165 61.1241C139.938 78.5367 110.563 107.708 93.9179 112.562C72.3552 118.85 48.3214 99.9084 37.398 115.49C26.4746 131.071 -6.72581 103.198 8.30085 78.8637C26.9932 48.5933 4.71683 48.1256 0.987259 34.9402C-1.68948 25.4772 16.3288 -0.603004 37.5336 7.56934C55.3772 14.446 58.5596 7.04285 62.8382 2.68307C69.0089 -3.60491 91.8124 0.73332 87.1077 20.2337Z" fill="#E9F8F3"/>
<path d="M50.703 90.5289C45.3155 90.2841 39.1933 83.8354 41.8871 82.1213C44.5809 80.4071 44.2543 76.8155 43.2748 76.326C37.2343 73.9589 35.765 68.6531 34.4589 61.8779C33.1529 55.1028 33.8875 33.5531 33.8875 33.5531L41.4789 29.7166L62.4574 28.4922L68.4162 38.3692C68.4162 38.3692 66.2319 44.266 66.049 50.1661C67.4791 49.0233 69.977 47.4495 71.8443 48.5727C73.0524 49.2975 73.7805 50.4305 74.0905 51.6974C74.4921 53.3397 74.1885 55.2139 73.3135 56.7355C72.7061 57.7934 71.9941 58.8482 71.0083 59.6582C69.6138 60.8042 67.6681 61.454 64.6674 60.925C64.7882 62.5348 67.926 62.6035 67.926 64.2457C67.926 65.7966 67.8675 68.1639 67.926 69.0617C68.4157 76.4083 72.4155 78.9387 74.456 81.3876C76.4966 83.8364 56.0904 90.7738 50.703 90.5289Z" fill="#C5E8DB"/>
<path d="M35.1123 60.1639C38.4028 60.1639 41.0702 57.2634 41.0702 53.6855C41.0702 50.1075 38.4028 47.207 35.1123 47.207C31.8218 47.207 29.1543 50.1075 29.1543 53.6855C29.1543 57.2634 31.8218 60.1639 35.1123 60.1639Z" fill="#6FC6A5"/>
<path d="M35.112 58.8771C37.7713 58.8771 39.9271 56.5515 39.9271 53.6827C39.9271 50.8139 37.7713 48.4883 35.112 48.4883C32.4527 48.4883 30.2969 50.8139 30.2969 53.6827C30.2969 56.5515 32.4527 58.8771 35.112 58.8771Z" fill="#E2F4ED"/>
<path d="M50.8251 60.6512C54.0034 60.6512 56.5799 57.9468 56.5799 54.6108C56.5799 51.2747 54.0034 48.5703 50.8251 48.5703C47.6468 48.5703 45.0703 51.2747 45.0703 54.6108C45.0703 57.9468 47.6468 60.6512 50.8251 60.6512Z" fill="#6FC6A5"/>
<path d="M50.8253 59.7153C53.3554 59.7153 55.4064 57.4312 55.4064 54.6135C55.4064 51.7959 53.3554 49.5117 50.8253 49.5117C48.2952 49.5117 46.2441 51.7959 46.2441 54.6135C46.2441 57.4312 48.2952 59.7153 50.8253 59.7153Z" fill="#E2F4ED"/>
<path d="M40.7828 51.6963C40.7828 51.6963 43.7423 50.5714 45.6914 52.6938C45.6914 53.0612 45.3957 53.6843 45.3957 53.6843C45.3957 53.6843 42.7816 51.6326 40.7828 53.1833C40.4573 52.5414 40.2611 51.8454 40.7828 51.6963Z" fill="#6FC6A5"/>
<path d="M56.0957 53.0373L65.9579 49.5117L65.8639 50.3845L56.4109 54.3343L56.0957 53.0373Z" fill="#6FC6A5"/>
<path d="M16.0332 96.4965C15.8155 95.9054 15.73 95.2737 15.7827 94.646C15.8354 94.0183 16.025 93.4098 16.3382 92.8632L18.8673 88.4073C18.8673 88.4073 19.1938 86.6659 26.5948 85.632C33.9957 84.598 41.1155 82.7382 41.8865 82.1219C41.8865 82.1219 54.9641 93.3556 74.2194 81.1133C74.2194 81.1133 89.9378 89.9854 93.5295 90.312C95.6393 90.504 97.2797 94.6577 98.2741 98.0529C98.4391 98.6164 98.4865 99.2078 98.4136 99.7904C98.3406 100.373 98.1488 100.935 97.8499 101.44C97.5511 101.945 97.1517 102.384 96.6764 102.729C96.201 103.074 95.66 103.317 95.0867 103.444C79.1954 106.979 23.936 117.609 16.0332 96.4965Z" fill="#6FC6A5"/>
<path d="M71.008 59.6562C69.1436 64.0936 67.8702 65.9608 66.3748 65.7947C64.8141 65.6217 64.321 63.0975 64.4255 60.8774C67.5633 61.488 69.5778 60.8317 71.008 59.6562Z" fill="#8CD1B7"/>
<path d="M74.1304 51.5922C74.1174 51.6281 74.1043 51.664 74.0913 51.6967C73.781 50.4298 73.053 49.2968 71.845 48.572C69.9284 47.4196 67.3457 49.1074 65.9352 50.26C66.2029 45.1207 65.7523 39.3055 62.9476 38.0419C58.0498 35.8379 57.8507 36.3278 54.8076 36.491C51.9506 36.6444 44.9469 37.0852 43.7584 36.3963C44.542 37.1312 48.2415 40.2851 54.1415 40.5724C54.8076 41.0621 54.3766 41.4703 53.724 41.3886C53.0714 41.307 44.1735 41.1438 37.48 32.7361C37.48 32.7361 33.5978 39.9977 33.6826 46.531C33.6826 46.531 31.1942 41.6333 32.7455 34.6132C33.6826 29.3891 36.0923 29.8785 36.0923 29.8785C36.0923 29.8785 34.459 18.2062 45.6421 19.2674C48.9071 19.6756 54.4579 24.4916 58.2128 24.41C61.9676 24.3283 65.3961 24.5733 65.3961 24.5733C65.3961 24.5733 70.7019 23.757 71.5998 30.9403C71.6387 32.3863 72.6826 33.038 75.5179 33.3892C78.4408 33.751 77.9668 41.3071 74.1304 51.5922Z" fill="#8CD1B7"/>
<path d="M100.828 113.667C108.334 113.667 114.419 107.582 114.419 100.076C114.419 92.5694 108.334 86.4844 100.828 86.4844C93.3213 86.4844 87.2363 92.5694 87.2363 100.076C87.2363 107.582 93.3213 113.667 100.828 113.667Z" fill="#8CD1B7" stroke="white" stroke-width="15" stroke-miterlimit="10"/>
<path d="M106.063 98.9373H102.193C102.163 98.9373 102.134 98.9314 102.106 98.9199C102.079 98.9085 102.054 98.8917 102.032 98.8706C102.011 98.8495 101.994 98.8244 101.983 98.7968C101.972 98.7691 101.966 98.7395 101.966 98.7096V94.8395C101.963 94.5393 101.842 94.2523 101.629 94.0409C101.416 93.8295 101.128 93.7109 100.827 93.7109C100.527 93.7109 100.239 93.8295 100.026 94.0409C99.8127 94.2523 99.6917 94.5393 99.6891 94.8395V98.7096C99.6891 98.77 99.6651 98.8279 99.6225 98.8706C99.5798 98.9133 99.5219 98.9373 99.4615 98.9373H95.5914C95.2895 98.9373 95 99.0572 94.7865 99.2707C94.573 99.4841 94.4531 99.7736 94.4531 100.076C94.4531 100.377 94.573 100.667 94.7865 100.88C95 101.094 95.2895 101.214 95.5914 101.214H99.4615C99.4914 101.214 99.521 101.22 99.5486 101.231C99.5762 101.243 99.6013 101.259 99.6225 101.28C99.6436 101.302 99.6604 101.327 99.6718 101.354C99.6833 101.382 99.6891 101.412 99.6891 101.441V105.312C99.6917 105.612 99.8127 105.899 100.026 106.111C100.239 106.322 100.527 106.441 100.827 106.441C101.128 106.441 101.416 106.322 101.629 106.111C101.842 105.899 101.963 105.612 101.966 105.312V101.441C101.966 101.412 101.972 101.382 101.983 101.354C101.994 101.327 102.011 101.302 102.032 101.28C102.053 101.259 102.079 101.243 102.106 101.231C102.134 101.22 102.163 101.214 102.193 101.214H106.063C106.365 101.214 106.655 101.094 106.868 100.88C107.082 100.667 107.202 100.377 107.202 100.076C107.202 99.7736 107.082 99.4841 106.868 99.2707C106.655 99.0572 106.365 98.9373 106.063 98.9373Z" fill="white"/>
</svg>
