<svg width="30" height="34" viewBox="0 0 30 34" fill="none" xmlns="http://www.w3.org/2000/svg">
<path opacity="0.999" fill-rule="evenodd" clip-rule="evenodd" d="M5.8479 0C10.9833 0 16.1188 0 21.2542 0C21.2431 2.28006 21.2542 4.56 21.2874 6.83984C21.6347 7.88528 22.3542 8.43864 23.4456 8.5C25.5263 10.625 27.6292 12.7279 29.7542 14.8086C29.7652 20.6745 29.7542 26.5404 29.7209 32.4062C29.6285 32.7857 29.4514 33.1177 29.1897 33.4023C28.8842 33.6763 28.5412 33.8756 28.1604 34C20.7229 34 13.2854 34 5.8479 34C5.22242 33.7843 4.74649 33.3859 4.42017 32.8047C4.37589 32.6719 4.33163 32.5391 4.28735 32.4062C4.25416 31.5211 4.24309 30.6357 4.25415 29.75C11.0719 29.7611 17.8896 29.75 24.7073 29.7168C25.0184 29.6271 25.2508 29.439 25.4045 29.1523C25.4955 28.7378 25.5287 28.3173 25.5042 27.8906C25.5152 24.1497 25.5042 20.4088 25.4709 16.668C25.3211 16.3189 25.0665 16.0864 24.7073 15.9707C17.8896 15.9375 11.0719 15.9264 4.25415 15.9375C4.24308 11.1562 4.25415 6.37495 4.28735 1.59375C4.37981 1.21432 4.5569 0.882293 4.8186 0.597656C5.12407 0.32365 5.46713 0.124431 5.8479 0Z" fill="#ECEFF2"/>
<path fill-rule="evenodd" clip-rule="evenodd" d="M21.2542 0C21.2763 0 21.2985 0 21.3206 0C24.1096 2.8112 26.8987 5.6224 29.6878 8.43359C27.6184 8.49987 25.5376 8.52205 23.4456 8.5C22.3542 8.43864 21.6347 7.88528 21.2874 6.83984C21.2542 4.56 21.2431 2.28006 21.2542 0Z" fill="#797E92"/>
<path fill-rule="evenodd" clip-rule="evenodd" d="M29.6904 8.43359C29.7567 10.5472 29.7789 12.6722 29.7568 14.8086C27.6318 12.7279 25.5289 10.625 23.4482 8.5C25.5403 8.52205 27.6211 8.49987 29.6904 8.43359Z" fill="#A0A4B6"/>
<path opacity="0.999" fill-rule="evenodd" clip-rule="evenodd" d="M4.25 15.9417C11.0677 15.9306 17.8855 15.9417 24.7031 15.9749C25.0624 16.0906 25.317 16.323 25.4668 16.6721C25.5 20.4129 25.5111 24.1539 25.5 27.8948C25.3572 28.2698 25.0916 28.5244 24.7031 28.6585C17.8855 28.6917 11.0677 28.7028 4.25 28.6917C3.05448 28.7028 1.85917 28.6917 0.664064 28.6585C0.365236 28.5367 0.154947 28.3264 0.0332048 28.0276C-0.0110683 24.2203 -0.0110683 20.413 0.0332048 16.6057C0.154947 16.3069 0.365236 16.0966 0.664064 15.9749C1.85917 15.9417 3.05448 15.9306 4.25 15.9417Z" fill="#0C5C2B"/>
<path fill-rule="evenodd" clip-rule="evenodd" d="M12.5939 19.3906C14.9081 19.48 16.0481 20.6753 16.0138 22.9766C15.7516 24.3455 14.9437 25.1977 13.59 25.5332C10.9534 25.7079 9.70281 24.4793 9.83802 21.8477C10.2489 20.4514 11.1675 19.6324 12.5939 19.3906Z" fill="white"/>
<path fill-rule="evenodd" clip-rule="evenodd" d="M19.5925 19.4609C20.3275 19.4289 21.0137 19.5949 21.6511 19.959C22.0195 20.154 22.1855 20.4528 22.1491 20.8555C21.9774 21.1588 21.7228 21.2584 21.3855 21.1543C20.8522 20.6198 20.2103 20.4427 19.4597 20.623C18.5667 20.9366 18.1241 21.5675 18.1316 22.5156C18.2504 24.1478 19.1137 24.7787 20.7214 24.4082C21.0042 24.2798 21.2699 24.1248 21.5183 23.9433C22.0277 23.8553 22.2601 24.0656 22.2156 24.5742C21.9985 24.9993 21.6554 25.2759 21.1863 25.4043C18.3414 25.924 16.9801 24.7398 17.1023 21.8516C17.4297 20.5168 18.2597 19.7199 19.5925 19.4609Z" fill="#ECEFF2"/>
<path fill-rule="evenodd" clip-rule="evenodd" d="M3.78516 19.6604C4.73722 19.6493 5.68909 19.6604 6.64063 19.6936C8.29846 20.2256 9.01784 21.3656 8.79883 23.1135C8.54343 24.4314 7.75758 25.2173 6.44141 25.471C5.55601 25.5152 4.67055 25.5152 3.78516 25.471C3.66656 25.4188 3.56695 25.3414 3.48633 25.2385C3.44206 23.4677 3.44206 21.6969 3.48633 19.926C3.57909 19.8218 3.6787 19.7332 3.78516 19.6604Z" fill="white"/>
<path fill-rule="evenodd" clip-rule="evenodd" d="M12.5155 20.5363C13.7306 20.418 14.5385 20.9271 14.9394 22.0636C15.0406 23.8658 14.1884 24.6737 12.3827 24.4874C11.2464 24.0415 10.7926 23.2114 11.0214 21.9972C11.2491 21.2271 11.7472 20.7401 12.5155 20.5363Z" fill="#0C5C2B"/>
<path fill-rule="evenodd" clip-rule="evenodd" d="M4.58887 20.6565C5.18692 20.6455 5.78458 20.6565 6.38184 20.6897C7.25554 20.966 7.69821 21.5637 7.70996 22.4826C7.7589 23.4708 7.31624 24.1127 6.38184 24.4084C5.78458 24.4416 5.18692 24.4527 4.58887 24.4416C4.58887 23.1799 4.58887 21.9182 4.58887 20.6565Z" fill="#0C5C2B"/>
<path fill-rule="evenodd" clip-rule="evenodd" d="M25.5 27.8906C25.5246 28.3173 25.4914 28.7378 25.4004 29.1523C25.2467 29.439 25.0142 29.6271 24.7031 29.7168C17.8855 29.75 11.0677 29.7611 4.25 29.75C4.25 29.3959 4.25 29.0416 4.25 28.6875C11.0677 28.6986 17.8855 28.6875 24.7031 28.6543C25.0916 28.5202 25.3572 28.2657 25.5 27.8906Z" fill="#A0A4B6"/>
</svg>
