<svg width="15" height="11" viewBox="0 0 15 11" fill="none" xmlns="http://www.w3.org/2000/svg">
<path d="M5.56072 6.09817C4.76773 6.89229 4.00923 7.65304 3.24999 8.41416C2.6001 9.06405 1.95021 9.71294 1.30032 10.3608C1.08773 10.5719 0.831269 10.6372 0.542193 10.552C0.253116 10.4669 0.0810205 10.2618 0.0172812 9.97202C-0.0442085 9.69007 0.0633984 9.45873 0.260615 9.25964C1.16196 8.35879 2.06256 7.4577 2.96241 6.55635C3.62955 5.88946 4.29719 5.22295 4.96532 4.55681C5.33164 4.19312 5.75569 4.19124 6.1205 4.55118C6.62742 5.0511 7.13096 5.55477 7.63112 6.06218C7.68774 6.11917 7.72336 6.19678 7.76348 6.25677L11.9763 2.04023C11.9163 2.03648 11.8585 2.03011 11.8004 2.02973C11.313 2.02973 10.8256 2.03461 10.3382 2.02673C10.0161 2.02186 9.77351 1.86551 9.64116 1.57269C9.51481 1.29298 9.5568 1.02153 9.75364 0.783068C9.82425 0.694688 9.91422 0.623708 10.0166 0.575603C10.119 0.527498 10.2311 0.503553 10.3442 0.505615C11.511 0.50299 12.6808 0.50074 13.8491 0.506739C14.2904 0.508989 14.6169 0.844183 14.6184 1.28473C14.6222 2.44704 14.6222 3.60934 14.6184 4.77165C14.6184 5.21332 14.2724 5.55901 13.8532 5.55526C13.434 5.55152 13.1108 5.22157 13.1033 4.77877C13.0962 4.3041 13.1015 3.82906 13.1015 3.35401V3.15717L13.0332 3.11293C12.9908 3.17974 12.9434 3.24328 12.8915 3.30302C11.3997 4.79752 9.90687 6.29089 8.41287 7.78314C8.02406 8.1712 7.60375 8.17195 7.21644 7.78651C6.70778 7.2801 6.19999 6.77206 5.69308 6.2624C5.64958 6.21853 5.61471 6.16454 5.56072 6.09817Z" fill="#04CE00"/>
</svg>
