<svg width="20" height="21" viewBox="0 0 20 21" xmlns="http://www.w3.org/2000/svg">
<path d="M7.5 9.875H3.81875C3.93491 9.10146 4.21112 8.36066 4.62974 7.6999C5.04837 7.03914 5.6002 6.47295 6.25 6.0375L7.36875 5.2875L6.68125 4.25L5.5625 5C4.6208 5.62755 3.84857 6.47785 3.31433 7.47545C2.7801 8.47305 2.50038 9.58711 2.5 10.7188V14.875C2.5 15.2065 2.6317 15.5245 2.86612 15.7589C3.10054 15.9933 3.41848 16.125 3.75 16.125H7.5C7.83152 16.125 8.14946 15.9933 8.38388 15.7589C8.6183 15.5245 8.75 15.2065 8.75 14.875V11.125C8.75 10.7935 8.6183 10.4755 8.38388 10.2411C8.14946 10.0067 7.83152 9.875 7.5 9.875ZM16.25 9.875H12.5688C12.6849 9.10146 12.9611 8.36066 13.3797 7.6999C13.7984 7.03914 14.3502 6.47295 15 6.0375L16.1188 5.2875L15.4375 4.25L14.3125 5C13.3708 5.62755 12.5986 6.47785 12.0643 7.47545C11.5301 8.47305 11.2504 9.58711 11.25 10.7188V14.875C11.25 15.2065 11.3817 15.5245 11.6161 15.7589C11.8505 15.9933 12.1685 16.125 12.5 16.125H16.25C16.5815 16.125 16.8995 15.9933 17.1339 15.7589C17.3683 15.5245 17.5 15.2065 17.5 14.875V11.125C17.5 10.7935 17.3683 10.4755 17.1339 10.2411C16.8995 10.0067 16.5815 9.875 16.25 9.875Z"/>
</svg>
