<?xml version="1.0" encoding="UTF-8"?>
<svg id="Layer_1" data-name="Layer 1" xmlns="http://www.w3.org/2000/svg" viewBox="0 0 456 159.6">
  <defs>
    <style>
      .cls-1 {
        fill: #102b3e;
        stroke-width: 0px;
      }
    </style>
  </defs>
  <g>
    <path class="cls-1" d="M.16,156.04l1.19-2.04c.26-.46.82-.46,1.12-.23.17.1,2.84,2.04,4.98,2.04,1.71,0,3-1.12,3-2.54,0-1.68-1.42-2.83-4.19-3.95-3.1-1.25-6.2-3.23-6.2-7.12,0-2.93,2.18-6.33,7.42-6.33,3.36,0,5.93,1.71,6.59,2.21.33.2.43.76.2,1.09l-1.25,1.88c-.26.4-.76.66-1.15.4-.26-.17-2.77-1.81-4.58-1.81s-2.9,1.25-2.9,2.31c0,1.55,1.22,2.6,3.89,3.69,3.2,1.29,6.89,3.2,6.89,7.45,0,3.4-2.93,6.53-7.58,6.53-4.15,0-6.59-1.94-7.25-2.57-.3-.3-.46-.46-.17-.99Z"/>
    <path class="cls-1" d="M20.55,136.82c0-.33.26-.63.63-.63h13.42c.36,0,.63.3.63.63v2.7c0,.33-.26.63-.63.63h-9.76v5.41h8.14c.33,0,.63.3.63.63v2.74c0,.36-.3.63-.63.63h-8.14v5.77h9.76c.36,0,.63.3.63.63v2.7c0,.33-.26.63-.63.63h-13.42c-.36,0-.63-.3-.63-.63v-21.82Z"/>
    <path class="cls-1" d="M41.11,136.82c0-.33.26-.63.63-.63h13.42c.36,0,.63.3.63.63v2.7c0,.33-.26.63-.63.63h-9.76v5.41h8.14c.33,0,.63.3.63.63v2.74c0,.36-.3.63-.63.63h-8.14v5.77h9.76c.36,0,.63.3.63.63v2.7c0,.33-.26.63-.63.63h-13.42c-.36,0-.63-.3-.63-.63v-21.82Z"/>
    <path class="cls-1" d="M70.14,136.82c0-.33.26-.63.63-.63h7.55c3.92,0,6.95,2.64,6.95,6.1,0,2.54-2.08,4.52-3.63,5.24,1.75.56,4.28,2.34,4.28,5.37,0,3.69-3.16,6.36-7.19,6.36h-7.98c-.36,0-.63-.3-.63-.63v-21.82ZM77.92,145.88c1.68,0,2.84-1.32,2.84-2.97s-1.15-2.8-2.84-2.8h-3.53v5.77h3.53ZM78.38,155.38c1.65,0,2.97-1.28,2.97-3s-1.65-2.87-3.36-2.87h-3.59v5.87h3.99Z"/>
    <path class="cls-1" d="M91.33,136.82c0-.33.3-.63.63-.63h3.13c.36,0,.63.3.63.63v13.48c0,2.8,1.91,5.01,4.78,5.01s4.81-2.21,4.81-4.98v-13.51c0-.33.26-.63.63-.63h3.13c.33,0,.63.3.63.63v13.71c0,5.01-3.99,9.06-9.2,9.06s-9.16-4.05-9.16-9.06v-13.71Z"/>
    <path class="cls-1" d="M115.18,156.04l1.19-2.04c.26-.46.82-.46,1.12-.23.17.1,2.84,2.04,4.98,2.04,1.71,0,3-1.12,3-2.54,0-1.68-1.42-2.83-4.19-3.95-3.1-1.25-6.2-3.23-6.2-7.12,0-2.93,2.18-6.33,7.42-6.33,3.36,0,5.93,1.71,6.59,2.21.33.2.43.76.2,1.09l-1.25,1.88c-.26.4-.76.66-1.15.4-.26-.17-2.77-1.81-4.58-1.81s-2.9,1.25-2.9,2.31c0,1.55,1.22,2.6,3.89,3.69,3.2,1.29,6.89,3.2,6.89,7.45,0,3.4-2.94,6.53-7.58,6.53-4.15,0-6.59-1.94-7.25-2.57-.3-.3-.46-.46-.17-.99Z"/>
    <path class="cls-1" d="M135.58,136.82c0-.33.3-.63.63-.63h3.07c.33,0,.63.3.63.63v21.82c0,.33-.3.63-.63.63h-3.07c-.33,0-.63-.3-.63-.63v-21.82Z"/>
    <path class="cls-1" d="M147.08,136.46c0-.33.3-.59.63-.59h.82l13.71,14.57h.03v-13.61c0-.33.26-.63.63-.63h3.03c.33,0,.63.3.63.63v22.18c0,.33-.3.59-.63.59h-.79l-13.78-15.13h-.03v14.17c0,.33-.26.63-.63.63h-3c-.33,0-.63-.3-.63-.63v-22.18Z"/>
    <path class="cls-1" d="M173.73,136.82c0-.33.26-.63.63-.63h13.42c.36,0,.63.3.63.63v2.7c0,.33-.26.63-.63.63h-9.76v5.41h8.14c.33,0,.63.3.63.63v2.74c0,.36-.3.63-.63.63h-8.14v5.77h9.76c.36,0,.63.3.63.63v2.7c0,.33-.26.63-.63.63h-13.42c-.36,0-.63-.3-.63-.63v-21.82Z"/>
    <path class="cls-1" d="M192.94,156.04l1.19-2.04c.26-.46.82-.46,1.12-.23.17.1,2.84,2.04,4.98,2.04,1.71,0,3-1.12,3-2.54,0-1.68-1.42-2.83-4.19-3.95-3.1-1.25-6.2-3.23-6.2-7.12,0-2.93,2.18-6.33,7.42-6.33,3.36,0,5.93,1.71,6.59,2.21.33.2.43.76.2,1.09l-1.25,1.88c-.26.4-.76.66-1.15.4-.26-.17-2.77-1.81-4.58-1.81s-2.9,1.25-2.9,2.31c0,1.55,1.22,2.6,3.89,3.69,3.2,1.29,6.89,3.2,6.89,7.45,0,3.4-2.94,6.53-7.58,6.53-4.15,0-6.59-1.94-7.25-2.57-.3-.3-.46-.46-.17-.99Z"/>
    <path class="cls-1" d="M211.99,156.04l1.19-2.04c.26-.46.82-.46,1.12-.23.17.1,2.84,2.04,4.98,2.04,1.71,0,3-1.12,3-2.54,0-1.68-1.42-2.83-4.19-3.95-3.1-1.25-6.2-3.23-6.2-7.12,0-2.93,2.18-6.33,7.42-6.33,3.36,0,5.93,1.71,6.59,2.21.33.2.43.76.2,1.09l-1.25,1.88c-.26.4-.76.66-1.15.4-.26-.17-2.77-1.81-4.58-1.81s-2.9,1.25-2.9,2.31c0,1.55,1.22,2.6,3.89,3.69,3.2,1.29,6.89,3.2,6.89,7.45,0,3.4-2.93,6.53-7.58,6.53-4.15,0-6.59-1.94-7.25-2.57-.3-.3-.46-.46-.17-.99Z"/>
    <path class="cls-1" d="M251.03,135.86c2.97,0,5.8,1.15,8.04,3.07.26.26.3.66.03.92l-2.04,2.14c-.26.26-.56.26-.86,0-1.42-1.25-3.16-1.91-4.98-1.91-4.12,0-7.38,3.53-7.38,7.65s3.26,7.55,7.42,7.55c1.84,0,3.26-.56,3.92-.82v-2.8h-2.64c-.36,0-.63-.26-.63-.59v-2.6c0-.36.26-.63.63-.63h6.33c.33,0,.59.3.59.63v8.44c0,.26-.13.43-.26.53,0,0-3.4,2.14-8.17,2.14-6.56,0-11.83-5.21-11.83-11.8s5.28-11.9,11.83-11.9Z"/>
    <path class="cls-1" d="M265.5,136.82c0-.33.26-.63.63-.63h9.43c3.96,0,7.19,3.16,7.19,7.09,0,3.03-2.01,5.51-4.88,6.66l4.52,8.37c.23.43,0,.96-.56.96h-3.46c-.3,0-.46-.17-.53-.3l-4.38-8.74h-3.66v8.41c0,.33-.3.63-.63.63h-3.03c-.36,0-.63-.3-.63-.63v-21.82ZM275.19,146.71c1.75,0,3.26-1.52,3.26-3.36,0-1.75-1.52-3.2-3.26-3.2h-5.37v6.56h5.37Z"/>
    <path class="cls-1" d="M298.81,135.86c6.59,0,11.87,5.31,11.87,11.9s-5.28,11.83-11.87,11.83-11.83-5.24-11.83-11.83,5.24-11.9,11.83-11.9ZM298.81,155.31c4.15,0,7.58-3.39,7.58-7.55s-3.43-7.61-7.58-7.61-7.55,3.46-7.55,7.61,3.4,7.55,7.55,7.55Z"/>
    <path class="cls-1" d="M313.96,136.98c-.13-.46.13-.79.59-.79h3.03c.27,0,.53.23.59.46l3.43,13.15h.13l5.24-13.58c.06-.2.23-.36.56-.36h.59c.33,0,.5.16.56.36l5.28,13.58h.13l3.36-13.15c.07-.23.33-.46.59-.46h3.03c.46,0,.73.33.59.79l-6.23,22.15c-.06.26-.33.46-.59.46h-.53c-.3,0-.49-.16-.56-.36l-5.9-14.93h-.17l-5.83,14.93c-.1.2-.23.36-.56.36h-.53c-.26,0-.53-.2-.59-.46l-6.23-22.15Z"/>
  </g>
  <g>
    <g>
      <path class="cls-1" d="M19.28,36.83h78.47v-2.11c0-6.85-5.55-12.4-12.4-12.4H13.43c-6.85,0-12.4,5.55-12.4,12.4v30.81c0,6.85,5.55,12.4,12.4,12.4h66.07c2.07,0,3.74,1.68,3.74,3.74v19.11c0,2.07-1.68,3.74-3.74,3.74H1.03v2.11c0,6.85,5.55,12.4,12.4,12.4h72.78c6.37,0,11.54-5.16,11.54-11.54v-31.68c0-6.85-5.55-12.4-12.4-12.4H19.28c-2.07,0-3.74-1.68-3.74-3.74v-19.11c0-2.07,1.68-3.74,3.74-3.74Z"/>
      <path class="cls-1" d="M241.72,36.83h78.47v-2.11c0-6.85-5.55-12.4-12.4-12.4h-72.78c-6.37,0-11.54,5.16-11.54,11.54v72.78c0,6.85,5.55,12.4,12.4,12.4h71.92c6.85,0,12.4-5.55,12.4-12.4v-2.11h-78.47c-2.07,0-3.74-1.68-3.74-3.74v-19.11c0-2.07,1.68-3.74,3.74-3.74h63.96v-14.51h-63.96c-2.07,0-3.74-1.68-3.74-3.74v-19.11c0-2.07,1.68-3.74,3.74-3.74Z"/>
      <path class="cls-1" d="M130.51,36.83h78.47v-2.11c0-6.85-5.55-12.4-12.4-12.4h-72.78c-6.37,0-11.54,5.16-11.54,11.54v72.78c0,6.85,5.55,12.4,12.4,12.4h71.92c6.85,0,12.4-5.55,12.4-12.4v-2.11h-78.47c-2.07,0-3.74-1.68-3.74-3.74v-19.11c0-2.07,1.68-3.74,3.74-3.74h63.96v-14.51h-63.96c-2.07,0-3.74-1.68-3.74-3.74v-19.11c0-2.07,1.68-3.74,3.74-3.74Z"/>
    </g>
    <g>
      <path class="cls-1" d="M449.54,22.33h-83.79c-3.57,0-6.46,2.89-6.46,6.46v83.3c0,3.84,3.11,6.95,6.95,6.95h82.82c3.84,0,6.95-3.11,6.95-6.95V28.79c0-3.57-2.89-6.46-6.46-6.46ZM407.64,104.53c-18.69,0-33.85-15.15-33.85-33.85s15.15-33.85,33.85-33.85,33.85,15.15,33.85,33.85-15.15,33.85-33.85,33.85Z"/>
      <g>
        <path class="cls-1" d="M289.19,63.41h93.34c1.85,0,3.34,1.5,3.34,3.34v11.16h-93.34c-1.85,0-3.34-1.5-3.34-3.34v-11.16h0Z" transform="translate(408.19 -266.87) rotate(90)"/>
        <circle class="cls-1" cx="337.53" cy="7.26" r="7.26"/>
      </g>
    </g>
  </g>
</svg>