<svg width="24" height="24" viewBox="0 0 24 24" fill="none" xmlns="http://www.w3.org/2000/svg">
<path fill-rule="evenodd" clip-rule="evenodd" d="M2.34407 2.24507C2.49334 2.1154 2.6777 2.03289 2.87384 2.00797C3.06999 1.98306 3.26912 2.01684 3.44607 2.10507L21.4461 11.1051C21.6125 11.188 21.7525 11.3157 21.8503 11.4738C21.9482 11.6319 22 11.8141 22 12.0001C22 12.186 21.9482 12.3682 21.8503 12.5263C21.7525 12.6844 21.6125 12.8121 21.4461 12.8951L3.44607 21.8951C3.26914 21.9836 3.06991 22.0177 2.87362 21.9929C2.67732 21.9682 2.49277 21.8858 2.34332 21.7562C2.19386 21.6265 2.08623 21.4554 2.03403 21.2646C1.98183 21.0738 1.98741 20.8717 2.05007 20.6841L4.61207 13.0001H9.99907C10.2643 13.0001 10.5186 12.8947 10.7062 12.7072C10.8937 12.5196 10.9991 12.2653 10.9991 12.0001C10.9991 11.7348 10.8937 11.4805 10.7062 11.293C10.5186 11.1054 10.2643 11.0001 9.99907 11.0001H4.61207L2.04907 3.31607C1.98673 3.12848 1.98139 2.92662 2.03372 2.736C2.08605 2.54538 2.1947 2.37454 2.34407 2.24507Z" fill="#9FC33C"/>
</svg>
