<svg width="24" height="24" viewBox="0 0 24 24" xmlns="http://www.w3.org/2000/svg">
<path d="M10 15.9987H14C14.55 15.9987 15 15.5487 15 14.9987V9.99869H16.59C17.48 9.99869 17.93 8.91869 17.3 8.28869L12.71 3.69869C12.6175 3.60599 12.5076 3.53244 12.3866 3.48226C12.2657 3.43208 12.136 3.40625 12.005 3.40625C11.874 3.40625 11.7443 3.43208 11.6234 3.48226C11.5024 3.53244 11.3925 3.60599 11.3 3.69869L6.71 8.28869C6.08 8.91869 6.52 9.99869 7.41 9.99869H9V14.9987C9 15.5487 9.45 15.9987 10 15.9987ZM6 17.9987H18C18.55 17.9987 19 18.4487 19 18.9987C19 19.5487 18.55 19.9987 18 19.9987H6C5.45 19.9987 5 19.5487 5 18.9987C5 18.4487 5.45 17.9987 6 17.9987Z" />
</svg>
