<svg width="24" height="25" viewBox="0 0 24 25" fill="none" xmlns="http://www.w3.org/2000/svg">
<path d="M6.23445 21.0548C5.94665 21.0542 5.66394 20.9788 5.41414 20.8359C4.85164 20.5171 4.50195 19.8984 4.50195 19.2266V5.6329C4.50195 4.9593 4.85164 4.34243 5.41414 4.02368C5.66989 3.87669 5.96043 3.80111 6.25539 3.80482C6.55034 3.80853 6.83889 3.8914 7.09086 4.04477L18.7088 10.9991C18.951 11.151 19.1506 11.3618 19.2889 11.6119C19.4273 11.8619 19.4999 12.143 19.4999 12.4288C19.4999 12.7146 19.4273 12.9957 19.2889 13.2458C19.1506 13.4959 18.951 13.7067 18.7088 13.8585L7.08898 20.8148C6.83112 20.9707 6.53577 21.0536 6.23445 21.0548Z" fill="white"/>
</svg>
