<svg width="60" height="61" viewBox="0 0 60 61" fill="none" xmlns="http://www.w3.org/2000/svg">
<path fill-rule="evenodd" clip-rule="evenodd" d="M36 60.5H24C12.687 60.5 7.029 60.5 3.516 56.984C-3.57628e-07 53.471 0 47.813 0 36.5V24.5C0 13.187 -3.57628e-07 7.529 3.516 4.016C7.029 0.5 12.717 0.5 24.09 0.5C25.908 0.5 27.363 0.5 28.59 0.551C28.551 0.791 28.53 1.034 28.53 1.283L28.5 9.785C28.5 13.076 28.5 15.986 28.815 18.329C29.157 20.87 29.94 23.411 32.016 25.487C34.086 27.557 36.63 28.343 39.171 28.685C41.514 29 44.424 29 47.715 29H59.871C60 30.602 60 32.57 60 35.189V36.5C60 47.813 60 53.471 56.484 56.984C52.971 60.5 47.313 60.5 36 60.5Z" fill="#F7F8F6"/>
<path d="M52.056 17.3518L40.176 6.66283C36.795 3.61783 35.106 2.09383 33.027 1.29883L33 9.50083C33 16.5718 33 20.1088 35.196 22.3048C37.392 24.5008 40.929 24.5008 48 24.5008H58.74C57.654 22.3888 55.704 20.6368 52.056 17.3518Z" fill="#C4DFD7"/>
</svg>
