<svg width="60" height="60" viewBox="0 0 60 60" fill="none" xmlns="http://www.w3.org/2000/svg">
<g clip-path="url(#clip0_1247_55960)">
<mask id="mask0_1247_55960" style="mask-type:luminance" maskUnits="userSpaceOnUse" x="-14" y="-14" width="88" height="88">
<path d="M-13.2051 -13.2725H73.2588V73.1914H-13.2051V-13.2725Z" fill="white"/>
</mask>
<g mask="url(#mask0_1247_55960)">
<path d="M30.0009 59.8867C46.5063 59.8867 59.8865 46.5066 59.8865 30.0011C59.8865 13.4957 46.5063 0.115486 30.0009 0.115486C13.4955 0.115486 0.115234 13.4957 0.115234 30.0011C0.115234 46.5066 13.4955 59.8867 30.0009 59.8867Z" fill="#1AB4D7"/>
<path d="M14.4204 29.9145L19.5207 24.8016C19.6897 24.6293 19.7841 24.4011 19.7841 24.1592C19.7841 23.6549 19.3741 23.2453 18.8698 23.2453C18.6242 23.2453 18.3939 23.3416 18.2202 23.5174C18.2197 23.5184 13.1246 28.6106 13.1246 28.6106L8.00615 23.5098C7.8332 23.3393 7.60402 23.2453 7.36102 23.2453C6.85732 23.2453 6.44727 23.6547 6.44727 24.1585C6.44727 24.4042 6.54538 24.6348 6.72148 24.8086L11.821 29.9074L6.72413 35.0138C6.54497 35.1902 6.44727 35.4213 6.44727 35.6682C6.44727 36.1724 6.85732 36.5814 7.36102 36.5814C7.60443 36.5814 7.83381 36.487 8.00615 36.3145L13.1166 31.2109L18.2077 36.2959C18.3883 36.4826 18.6212 36.582 18.8698 36.582C19.3736 36.582 19.7836 36.1724 19.7836 35.6682C19.7836 35.4249 19.6893 35.1963 19.5178 35.024L14.4204 29.9145Z" fill="white"/>
<path d="M44.7402 29.9137C44.7402 30.8293 45.4848 31.5742 46.4016 31.5742C47.3163 31.5742 48.0611 30.8293 48.0611 29.9137C48.0611 28.9978 47.3163 28.253 46.4016 28.253C45.4848 28.253 44.7402 28.9978 44.7402 29.9137Z" fill="white"/>
<path d="M41.591 29.9134C41.591 27.2617 43.7481 25.1042 46.4001 25.1042C49.0508 25.1042 51.2084 27.2617 51.2084 29.9134C51.2084 32.5645 49.0508 34.7211 46.4001 34.7211C43.7481 34.7211 41.591 32.5645 41.591 29.9134ZM39.6992 29.9134C39.6992 33.6077 42.7052 36.6133 46.4001 36.6133C50.0949 36.6133 53.1024 33.6077 53.1024 29.9134C53.1024 26.2186 50.0949 23.2122 46.4001 23.2122C42.7052 23.2122 39.6992 26.2186 39.6992 29.9134Z" fill="white"/>
<path d="M39.2243 23.3264L38.9432 23.3256C38.0992 23.3256 37.2852 23.5917 36.6053 24.1157C36.5157 23.7057 36.1493 23.3972 35.7128 23.3972C35.2104 23.3972 34.8079 23.7998 34.8066 24.3032C34.8066 24.305 34.8097 35.5891 34.8097 35.5891C34.811 36.0916 35.2209 36.5 35.7235 36.5C36.2261 36.5 36.6359 36.0916 36.6372 35.588C36.6372 35.5857 36.6376 28.6485 36.6376 28.6485C36.6376 26.3356 36.8491 25.4016 38.8303 25.154C39.0134 25.1312 39.2126 25.1348 39.2134 25.1348C39.7556 25.1161 40.1408 24.7436 40.1408 24.2401C40.1408 23.7363 39.7295 23.3264 39.2243 23.3264Z" fill="white"/>
<path d="M21.6783 28.81C21.6783 28.7849 21.6802 28.7589 21.6814 28.7332C22.212 26.6359 24.1114 25.084 26.3734 25.084C28.6629 25.084 30.5796 26.6741 31.083 28.81H21.6783ZM32.9544 28.6374C32.5606 26.773 31.5399 25.2416 29.9855 24.2581C27.7135 22.8156 24.7133 22.8954 22.5187 24.456C20.7286 25.7295 19.6953 27.8127 19.6953 29.9587C19.6953 30.4968 19.7602 31.0399 19.8952 31.5745C20.5711 34.2335 22.857 36.2464 25.5823 36.58C26.391 36.6779 27.1782 36.631 27.9933 36.4199C28.6938 36.2495 29.3715 35.9654 29.996 35.5653C30.6442 35.1486 31.1857 34.5991 31.7102 33.9414C31.7207 33.9293 31.7314 33.9186 31.742 33.9059C32.106 33.4545 32.0385 32.8125 31.6385 32.5061C31.3011 32.2475 30.7348 32.1427 30.2891 32.7134C30.1934 32.8498 30.0865 32.9902 29.9689 33.1306C29.6145 33.5222 29.1749 33.9015 28.6481 34.1958C27.9778 34.5539 27.2139 34.7586 26.4018 34.7631C23.7438 34.7336 22.3215 32.8782 21.8155 31.5539C21.7272 31.3066 21.6591 31.0501 21.6116 30.7859C21.6054 30.7365 21.6008 30.6888 21.599 30.6449C22.1485 30.6449 31.1373 30.6434 31.1373 30.6434C32.445 30.6159 33.1488 29.6929 32.9544 28.6374Z" fill="white"/>
</g>
</g>
<defs>
<clipPath id="clip0_1247_55960">
<rect width="60" height="60" fill="white"/>
</clipPath>
</defs>
</svg>
